<svg xmlns="http://www.w3.org/2000/svg" width="939.189" height="1085.265" viewBox="0 0 939.189 1085.265">
  <g id="Group_1893" data-name="Group 1893" transform="translate(-1106 -154)">
    <path id="Path_300" data-name="Path 300" d="M439.157,487.711a4.1,4.1,0,0,1-4.1-4.1,4.937,4.937,0,0,0-4.931-4.931,4.1,4.1,0,0,1,0-8.194,4.937,4.937,0,0,0,4.931-4.931,4.1,4.1,0,0,1,8.194,0,4.937,4.937,0,0,0,4.931,4.931,4.1,4.1,0,0,1,0,8.194,4.937,4.937,0,0,0-4.931,4.931A4.1,4.1,0,0,1,439.157,487.711Z" transform="translate(732.189 -296.536)" fill="#09c3ff"/>
    <g id="Group_1892" data-name="Group 1892" transform="translate(1106 154)">
      <g id="Group_17" data-name="Group 17">
        <path id="Path_155" data-name="Path 155" d="M280.716,405.76a8.808,8.808,0,1,1-8.78-8.78,8.808,8.808,0,0,1,8.78,8.78Z" transform="translate(-61.813 476.458)" fill="#96bde6"/>
        <g id="Group_16" data-name="Group 16" transform="translate(0 0)">
          <g id="Visual_data-pana" data-name="Visual data-pana">
            <g id="freepik--back-screens--inject-288" transform="translate(67.796 64.608)">
              <path id="Path_1" data-name="Path 1" d="M356.78,80.3c-89.987,6.53-188.252,18.449-260.3,46.122L119.25,280.4s139.629-49.982,253.26-46.511Z" transform="translate(-96.48 -76.525)" fill="#96bde6"/>
              <g id="Group_1" data-name="Group 1" transform="translate(0 3.775)" opacity="0.8">
                <path id="Path_2" data-name="Path 2" d="M356.78,80.3c-89.987,6.53-188.252,18.449-260.3,46.122L119.25,280.4s139.629-49.982,253.26-46.511Z" transform="translate(-96.48 -80.3)" fill="#fff"/>
              </g>
              <path id="Path_3" data-name="Path 3" d="M337.054,181.422l-.874.146-2.549.364-9.71,1.214c-4.272.51-9.491,1.141-15.536,2.015s-12.939,1.748-20.512,3.01A1196.977,1196.977,0,0,0,170.31,212.446c-15.779,4.078-31,8.278-44.909,12.647l-.7.194v-.7c-4.855-35.3-9.564-65.737-13.181-87.39-1.845-10.73-3.326-19.42-4.345-25.27-.51-2.889-.9-5.146-1.189-6.748a8.882,8.882,0,0,0-.267-1.748,1.942,1.942,0,0,1,0-.607,2.428,2.428,0,0,1,.17.583,9.581,9.581,0,0,0,.388,1.724c.316,1.6.777,3.835,1.384,6.724,1.165,5.85,2.792,14.419,4.685,25.2,3.835,21.556,8.69,52,13.643,87.39l-.8-.485c13.958-4.418,29.13-8.642,44.981-12.72A1146.387,1146.387,0,0,1,287.9,187.394c7.6-1.189,14.565-1.991,20.561-2.792s11.288-1.384,15.56-1.821l9.856-1,2.573-.218a3.373,3.373,0,0,1,.607-.146Z" transform="translate(-83.333 -44.377)" fill="#578ccf"/>
              <path id="Path_4" data-name="Path 4" d="M334.643,135.134s-.34-1.068-1.044-3.083a32.308,32.308,0,0,0-4.637-7.938,40.321,40.321,0,0,0-10.924-9.589c-1.165-.777-2.549-1.359-3.884-2.063a34.77,34.77,0,0,0-4.394-1.578,24.032,24.032,0,0,0-10.026-.971,20.876,20.876,0,0,0-10.2,4.005,34.543,34.543,0,0,0-8.156,8.86c-4.855,7.015-7.792,15.56-11.434,24.421a30.32,30.32,0,0,1-8.472,12.137,15.9,15.9,0,0,1-7.015,3.374,14.25,14.25,0,0,1-7.914-.923c-10.244-4.054-14.808-15.876-25.173-19.42a20.318,20.318,0,0,0-15.366,1.262,19.663,19.663,0,0,0-6.093,4.709,31.56,31.56,0,0,0-4.054,6.506c-2.306,4.564-4.054,9.71-7.962,13.23a11.846,11.846,0,0,1-6.991,3.131,13.958,13.958,0,0,1-7.283-1.554,26.386,26.386,0,0,1-10.05-9.88,87.39,87.39,0,0,1-5.316-12.137,57.122,57.122,0,0,0-5.268-10.948,21.847,21.847,0,0,0-8.035-7.477,20.876,20.876,0,0,0-18.449-.534,31.193,31.193,0,0,0-11.725,8.448,22.746,22.746,0,0,0-4.394,8.035c-.631,2.015-.7,3.156-.8,3.132a13.738,13.738,0,0,1,.558-3.2,21.847,21.847,0,0,1,4.248-8.278,31.558,31.558,0,0,1,11.822-8.787,21.556,21.556,0,0,1,19.153.413,22.673,22.673,0,0,1,8.448,7.719,57.58,57.58,0,0,1,5.413,11.118,87.735,87.735,0,0,0,5.316,11.919,25.076,25.076,0,0,0,9.71,9.419,12.793,12.793,0,0,0,6.676,1.432,10.8,10.8,0,0,0,6.287-2.864c3.593-3.277,5.34-8.229,7.647-12.866a32.649,32.649,0,0,1,4.224-6.8,20.828,20.828,0,0,1,6.481-5,21.532,21.532,0,0,1,16.337-1.335c5.51,1.821,9.467,6.069,13.133,9.9a36.728,36.728,0,0,0,12.138,9.71,13.036,13.036,0,0,0,7.282.85,14.9,14.9,0,0,0,6.481-3.107,29.566,29.566,0,0,0,8.156-11.652c3.617-8.763,6.8-17.429,11.652-24.542a34.4,34.4,0,0,1,8.448-9.079,22.042,22.042,0,0,1,10.657-4.1,25,25,0,0,1,10.341,1.092,35.061,35.061,0,0,1,4.491,1.675,41.851,41.851,0,0,1,14.881,12.137,31.144,31.144,0,0,1,4.491,8.181,22.548,22.548,0,0,1,.631,2.428Q334.678,134.9,334.643,135.134Z" transform="translate(-77.766 -35.521)" fill="#09c3ff"/>
              <path id="Path_5" data-name="Path 5" d="M107.263,111.589c0,.34-1.117.85-2.622,1.141s-2.792.243-2.84,0,1.092-.85,2.6-1.141S107.141,111.25,107.263,111.589Z" transform="translate(-88.887 -32.198)" fill="#578ccf"/>
              <path id="Path_6" data-name="Path 6" d="M108.274,123.066c.146.34-.728,1.044-1.966,1.626s-2.427.777-2.427.461.753-1.02,1.991-1.6S108.128,122.823,108.274,123.066Z" transform="translate(-85.917 -15.637)" fill="#578ccf"/>
              <path id="Path_7" data-name="Path 7" d="M110.367,135.8c0,.34-.8.947-2.039,1.384s-2.427.51-2.427.194.8-.947,2.039-1.384S110.245,135.488,110.367,135.8Z" transform="translate(-83.033 2.43)" fill="#578ccf"/>
              <path id="Path_8" data-name="Path 8" d="M113.2,148.244c0,.34-.947.971-2.427,1.384s-2.573.534-2.67.194.922-.947,2.282-1.384S113.08,147.928,113.2,148.244Z" transform="translate(-79.896 20.188)" fill="#578ccf"/>
              <path id="Path_9" data-name="Path 9" d="M180.167,91.772a12.6,12.6,0,0,1,2.937-.68c1.942-.316,4.855-.753,8.375-1.262,7.282-1.02,17.5-2.427,29.761-3.86h.583v.583c.947,10.341,2.063,22.236,3.229,34.859v1.141h-.607l-40.224,4.855h-.558v-.534c-1.117-10.56-2.063-19.42-2.743-25.707-.291-2.962-.51-5.316-.7-7.113a20.378,20.378,0,0,1-.146-2.427,21.844,21.844,0,0,1,.437,2.573c.267,1.8.583,4.2,1,7.282.8,6.263,1.893,14.953,3.229,25.392l-.607-.485,40.224-5.122-.558.68v-.51c-1.117-12.623-2.16-24.542-3.083-34.883l.631.51Z" transform="translate(22.844 -68.431)" fill="#96bde6"/>
              <path id="Path_10" data-name="Path 10" d="M213.554,91.11c0,.388-6.918.364-15.366,1.287s-15.22,2.427-15.317,1.966A74.67,74.67,0,0,1,213.554,91.11Z" transform="translate(26.841 -61.652)" fill="#96bde6"/>
              <path id="Path_11" data-name="Path 11" d="M212.577,94.844c0,.364-6.457.607-14.347,1.384s-14.3,1.748-14.371,1.384a56.27,56.27,0,0,1,14.249-2.646,55.4,55.4,0,0,1,14.468-.121Z" transform="translate(28.254 -56.356)" fill="#96bde6"/>
              <path id="Path_12" data-name="Path 12" d="M201.441,97.916a26.556,26.556,0,0,1-8.2,1.675,28.328,28.328,0,0,1-8.326.437,27.381,27.381,0,0,1,8.181-1.675,28.5,28.5,0,0,1,8.351-.437Z" transform="translate(29.753 -51.562)" fill="#96bde6"/>
              <path id="Path_13" data-name="Path 13" d="M547.564,127.914c-88.118-26.848-162.472-49.788-262.169-49.157L270.15,235.646c103.678,9.176,138.367,15.973,234.059,50.613Z" transform="translate(151.433 -78.745)" fill="#96bde6"/>
              <g id="Group_2" data-name="Group 2" transform="translate(421.583)" opacity="0.8">
                <path id="Path_14" data-name="Path 14" d="M547.564,127.914c-88.118-26.848-162.472-49.788-262.169-49.157L270.15,235.646c103.678,9.176,138.367,15.973,234.059,50.613Z" transform="translate(-270.15 -78.745)" fill="#fff"/>
              </g>
              <path id="Path_15" data-name="Path 15" d="M325.77,129.755l3.884-33.281A38.961,38.961,0,0,0,302.491,104a40.831,40.831,0,0,0-16.7,32.868,47.7,47.7,0,0,0,.121,4.855h0l38.84-4.369Z" transform="translate(173.735 -53.713)" fill="#324e8f"/>
              <path id="Path_16" data-name="Path 16" d="M340.469,123.732a37.65,37.65,0,0,0-27.7-26.29l-1.165-.243-.753-.17-2.282-.34h-.194l-3.835,33.135-.923,7.817,36.7,13.4h0a42.051,42.051,0,0,0,1.893-8.521A45.8,45.8,0,0,0,340.469,123.732Z" transform="translate(199.211 -53.128)" fill="#24a2bc"/>
              <g id="Group_3" data-name="Group 3" transform="translate(502.831 43.562)" opacity="0.3">
                <path id="Path_17" data-name="Path 17" d="M340.469,123.732a37.65,37.65,0,0,0-27.7-26.29l-1.165-.243-.753-.17-2.282-.34h-.194l-3.835,33.135-.923,7.817,36.7,13.4h0a42.051,42.051,0,0,0,1.893-8.521A45.8,45.8,0,0,0,340.469,123.732Z" transform="translate(-303.62 -96.69)" fill="#578ccf"/>
              </g>
              <path id="Path_18" data-name="Path 18" d="M325.32,115.1l-38.84,4.369c1.626,18.837,15.366,34.446,33.815,36.728s35.757-9.71,41.826-27.673l-36.7-13.4" transform="translate(174.744 -26.848)" fill="#09c3ff"/>
              <path id="Path_19" data-name="Path 19" d="M423.274,126.436a20.931,20.931,0,0,1-3.423-1.384c-2.161-1-5.316-2.427-9.249-4.005a282.5,282.5,0,0,0-31.266-10.972,285.367,285.367,0,0,0-32.383-7.282c-4.175-.68-7.6-1.165-9.953-1.481a18.839,18.839,0,0,1-3.641-.631,23.742,23.742,0,0,1,3.714.146c2.427.17,5.8.534,10.026,1.092a233.718,233.718,0,0,1,63.867,18.206c3.884,1.748,6.991,3.253,9.1,4.369a21.848,21.848,0,0,1,3.2,1.942Z" transform="translate(241.665 -47.457)" fill="#96bde6"/>
              <path id="Path_20" data-name="Path 20" d="M422.174,133.111a23.035,23.035,0,0,1-3.423-1.408c-2.161-.971-5.316-2.428-9.249-3.981a275.18,275.18,0,0,0-63.649-18.158c-4.175-.68-7.6-1.165-9.953-1.481a25.236,25.236,0,0,1-3.641-.631,17.94,17.94,0,0,1,3.714.146c2.427.146,5.8.51,10.026,1.068a234.546,234.546,0,0,1,32.577,6.846,238.513,238.513,0,0,1,31.29,11.385c3.884,1.748,6.991,3.253,9.1,4.369a18.037,18.037,0,0,1,3.2,1.845Z" transform="translate(240.094 -37.819)" fill="#96bde6"/>
              <path id="Path_21" data-name="Path 21" d="M421.074,139.969a20.929,20.929,0,0,1-3.423-1.384c-2.161-.971-5.316-2.427-9.249-4.005a287.633,287.633,0,0,0-31.266-11.045,290.78,290.78,0,0,0-32.383-7.282c-4.175-.655-7.574-1.165-9.953-1.481a18.837,18.837,0,0,1-3.641-.631,23.741,23.741,0,0,1,3.714.146c2.427.17,5.8.534,10.026,1.092a234.533,234.533,0,0,1,32.577,6.846,231.615,231.615,0,0,1,31.29,11.385c3.884,1.748,6.991,3.253,9.1,4.37A19.193,19.193,0,0,1,421.074,139.969Z" transform="translate(238.524 -28.243)" fill="#96bde6"/>
              <path id="Path_22" data-name="Path 22" d="M417.318,146.625a23.842,23.842,0,0,1-3.326-1.384c-2.088-1-5.146-2.428-8.933-3.981A261.876,261.876,0,0,0,343.3,123.078c-4.078-.68-7.283-1.165-9.71-1.481a18.112,18.112,0,0,1-3.544-.631,19.416,19.416,0,0,1,3.617.146c2.306.146,5.632.51,9.71,1.092a221.629,221.629,0,0,1,31.679,6.846,226.411,226.411,0,0,1,30.368,11.458c3.763,1.748,6.773,3.253,8.788,4.369a18.931,18.931,0,0,1,3.107,1.748Z" transform="translate(236.94 -18.513)" fill="#96bde6"/>
              <path id="Path_23" data-name="Path 23" d="M407.271,150.089a18.553,18.553,0,0,1-2.986-1.189l-8.035-3.568a195.583,195.583,0,0,0-55.4-15.8l-8.715-1.214a19.617,19.617,0,0,1-3.18-.558,13.738,13.738,0,0,1,3.228,0c2.088,0,5.073.388,8.763.8a168.711,168.711,0,0,1,55.662,15.876c3.374,1.6,6.044,2.962,7.889,3.957a15.29,15.29,0,0,1,2.767,1.7Z" transform="translate(235.384 -8.917)" fill="#96bde6"/>
              <path id="Path_24" data-name="Path 24" d="M370.314,142.338a41.267,41.267,0,0,1-6.263-1.287c-3.835-.9-9.152-2.063-15.075-3.059s-11.336-1.772-15.245-2.427a37.463,37.463,0,0,1-6.311-1.092,29.594,29.594,0,0,1,6.409.194c3.957.34,9.394.923,15.366,1.966a137.028,137.028,0,0,1,15.075,3.447,28.153,28.153,0,0,1,6.044,2.258Z" transform="translate(233.185 0.678)" fill="#96bde6"/>
              <path id="Path_25" data-name="Path 25" d="M291.088,86.556l2.039-.121,6.069-.194c5.341,0,13.108,0,23.013.51a368.01,368.01,0,0,1,80.836,14.565l.437.146v.461c-6.069,34.786-13.3,76.126-21.022,120.355-.316,1.8-.631,3.593-.947,5.34v.68l-.68-.17a524.926,524.926,0,0,0-53.963-11.142c-17.405-2.67-33.985-4.564-49.472-5.535h-.607v-.583c4.248-37.116,7.817-68.188,10.317-90.06,1.262-10.827,2.282-19.42,2.962-25.246.34-2.864.631-5.073.8-6.627a11.777,11.777,0,0,1,.218-1.7c.049-.437,0-.558,0-.534a2.869,2.869,0,0,1,0,.607,7.2,7.2,0,0,1-.17,1.748c-.146,1.578-.388,3.835-.68,6.748-.607,5.923-1.529,14.565-2.67,25.392-2.427,21.847-5.729,52.8-9.71,89.817l-.534-.607c15.512.922,32.164,2.792,49.594,5.438a527.188,527.188,0,0,1,54.109,11.118l-.777.51c.316-1.748.631-3.544.947-5.34,7.792-44.229,15.075-85.545,21.192-120.307l.364.607a375.415,375.415,0,0,0-80.544-14.881c-9.856-.655-17.672-.825-22.916-.8h-8.156Z" transform="translate(160.911 -68.045)" fill="#96bde6"/>
            </g>
            <g id="freepik--Character--inject-288" transform="translate(127.369 0)">
              <path id="Path_26" data-name="Path 26" d="M244.9,239.867,330.829,258.9l13.133-19.032-2.112-24.493L328.79,203.43H283.784L241.74,241.3" transform="translate(51.305 163.851)" fill="#24a2bc"/>
              <g id="Group_4" data-name="Group 4" transform="translate(293.045 367.281)" opacity="0.3">
                <path id="Path_27" data-name="Path 27" d="M244.9,239.867,330.829,258.9l13.133-19.032-2.112-24.493L328.79,203.43H283.784L241.74,241.3" transform="translate(-241.74 -203.43)"/>
              </g>
              <path id="Path_28" data-name="Path 28" d="M310.43,163.13l108.485-14.565,16.992-4.855s39.107-8.593,42.748-9.9c4.224-1.505,5.972.17,6.409,1.748.7,2.427-1.675,5.268-5.268,6.676-1.214.485-21.046,7.282-21.046,7.282a48.549,48.549,0,0,1,6.7,1.942c4.734,1.6,9.273,7.719,11.555,14.856s2.306,9.322-.437,10.341a3.811,3.811,0,0,1-3.156-.437,7.525,7.525,0,0,1-3.253-4.078c-3.811-11.385-10.924-12.283-10.924-12.283l-2.233.631s7.283,5.122,7.283,11.336a6.946,6.946,0,0,1-.583,2.646,9.394,9.394,0,0,1-10.463,12.356c-1.554-.291-3.253-1.214-3.471-2.767a4.855,4.855,0,0,1,.51-2.428,11.251,11.251,0,0,0,.388-1.286l-6.506.9s-14.735,1.214-21.071,2.427L321.523,214.253a26.314,26.314,0,0,1-32.941-17.915h0A26.29,26.29,0,0,1,310.43,163.13Z" transform="translate(116.758 63.623)" fill="#96bde6"/>
              <path id="Path_29" data-name="Path 29" d="M342.74,144.057a5.462,5.462,0,0,0,4.685,4.321c2.233.461,4.564.17,6.821.461,6.748.922,12.016,7.064,18.789,7.647.947,0,2.16,0,2.427-1.02s-.461-1.626-1.117-2.209L357.353,138.28" transform="translate(195.482 70.85)" fill="#96bde6"/>
              <path id="Path_30" data-name="Path 30" d="M357.469,138.28a11.674,11.674,0,0,1,1.991,1.432c1.214,1,2.986,2.427,5.122,4.272l7.5,6.433,2.136,1.869c.655.655,1.772,1.214,1.966,2.767a1.918,1.918,0,0,1-1.165,1.8,3.981,3.981,0,0,1-1.821.291,13.57,13.57,0,0,1-3.253-.655A86.631,86.631,0,0,1,359.1,151a16.6,16.6,0,0,0-4.855-1.6c-1.578-.243-3.131-.194-4.539-.291a7.987,7.987,0,0,1-6.19-2.67,2.99,2.99,0,0,1-.752-2.428,7.062,7.062,0,0,0,1.141,2.039,7.6,7.6,0,0,0,5.826,2.088,45.416,45.416,0,0,1,4.661.146,17.938,17.938,0,0,1,5.195,1.578,98.251,98.251,0,0,0,10.73,5.365,14.307,14.307,0,0,0,2.937.583c.947,0,1.748-.267,1.651-.752a4.793,4.793,0,0,0-1.505-1.893l-2.136-1.893-7.283-6.651-4.855-4.564C357.978,138.984,357.4,138.353,357.469,138.28Z" transform="translate(195.439 70.85)" fill="#578ccf"/>
              <path id="Path_31" data-name="Path 31" d="M357.351,144.966a9.152,9.152,0,0,1,4.272,0,7.064,7.064,0,0,1,3.714,2.428,17.891,17.891,0,0,1,2.67,5.073,29.756,29.756,0,0,0,2.428,5.389,9.467,9.467,0,0,0,3.544,3.423,3.641,3.641,0,0,0,3.326,0c.7-.364.971-.728.947-.753s-.388.194-1.068.461a3.617,3.617,0,0,1-2.937-.291,9.419,9.419,0,0,1-3.156-3.3,30.928,30.928,0,0,1-2.427-5.316,17.868,17.868,0,0,0-2.864-5.243,7.6,7.6,0,0,0-4.151-2.646,6.943,6.943,0,0,0-3.326,0A5.874,5.874,0,0,0,357.351,144.966Z" transform="translate(216.337 78.996)" fill="#578ccf"/>
              <path id="Path_32" data-name="Path 32" d="M383.078,136.7a21.581,21.581,0,0,0-3.957,1.335l-9.419,3.471-9.419,3.326a20.25,20.25,0,0,0-3.884,1.481,19.416,19.416,0,0,0,4.078-.922c2.428-.7,5.875-1.772,9.564-3.107s7.016-2.646,9.37-3.69a18.286,18.286,0,0,0,3.666-1.893Z" transform="translate(214.981 68.594)" fill="#578ccf"/>
              <path id="Path_33" data-name="Path 33" d="M359.38,146.883s.291.388.85,1a3.86,3.86,0,0,1,1.238,2.986,2.063,2.063,0,0,1-1.287,1.6,11.649,11.649,0,0,1-2.622.728,4.636,4.636,0,0,0-2.937,1.554,4.03,4.03,0,0,0-.486,3.568,4.516,4.516,0,0,0,2.428,2.622,5.462,5.462,0,0,0,3.253.485,18.473,18.473,0,0,0,5.025-1.869,10.727,10.727,0,0,0,2.913-2.161,2.769,2.769,0,0,0,.68-1.141,10.568,10.568,0,0,1-.922.9,12.135,12.135,0,0,1-2.937,1.869,19.132,19.132,0,0,1-4.855,1.651,4.466,4.466,0,0,1-4.855-2.6,3.228,3.228,0,0,1,.34-2.84,3.908,3.908,0,0,1,2.427-1.286,11.876,11.876,0,0,0,2.767-.874,2.743,2.743,0,0,0,1.554-2.136,4.151,4.151,0,0,0-1.578-3.3A4.977,4.977,0,0,0,359.38,146.883Z" transform="translate(211.443 83.123)" fill="#578ccf"/>
              <path id="Path_34" data-name="Path 34" d="M356.558,155.376a1.854,1.854,0,0,0-1.068.51,3.641,3.641,0,0,0-1.214,3.01,4.855,4.855,0,0,0,2.889,3.86,7.889,7.889,0,0,0,5.875,0,9.516,9.516,0,0,0,4.685-3.568,9.128,9.128,0,0,0,1.578-4.515,8.329,8.329,0,0,0-.364-3.2,2.623,2.623,0,0,0-.485-1.068,16.854,16.854,0,0,1,.267,4.2,8.982,8.982,0,0,1-5.947,7.282,7.282,7.282,0,0,1-5.292,0,4.248,4.248,0,0,1-2.622-3.2,3.447,3.447,0,0,1,.85-2.719C356.194,155.595,356.607,155.449,356.558,155.376Z" transform="translate(211.934 88.151)" fill="#578ccf"/>
              <path id="Path_35" data-name="Path 35" d="M351.292,156.289a3.949,3.949,0,0,0-.7-1.893,7.962,7.962,0,0,0-3.957-3.229v.728a19.425,19.425,0,0,0,2.427-1.359,17.94,17.94,0,0,0,6.8-7.015,46.119,46.119,0,0,1-7.282,6.311,27.447,27.447,0,0,1-2.427,1.359l-.825.437.874.291a8.3,8.3,0,0,1,3.811,2.767C350.9,155.633,351.17,156.313,351.292,156.289Z" transform="translate(199.165 78.33)" fill="#578ccf"/>
              <path id="Path_36" data-name="Path 36" d="M362.541,144.007c-.146-.146-1.287,1.117-1.432,3.131s.825,3.4,1.02,3.277-.316-1.481-.17-3.229S362.759,144.152,362.541,144.007Z" transform="translate(221.682 79.008)" fill="#578ccf"/>
              <path id="Path_37" data-name="Path 37" d="M199.087,182.225s-15.827-25.659-18.643-27.843-27.892-11.361-30.028-10.681-32.528,5.85-29.13,9.467,24.688-.316,24.688-.316l2.864,1.432s-18.328,2.913-22.187,5.146-2.427,6.384,1.044,6.044,19.25-3.423,20.2-2.767-17.308,4.3-19.274,5.438c-2.646,1.578-2.913,6.263.437,6.044,1.966-.146,19.177-4.588,19.177-4.588a148.4,148.4,0,0,0-14.9,6.457c-2.063,1.966-.437,4.855,2.428,4.272,2.039-.437,11.676-5.049,14.4-5.632,0,0,2.427.68,4.855,5.826,1.068,2.427,5.972,17.357,14.929,17.162,7.938-.17,15.73,6.36,15.73,6.36Z" transform="translate(-121.021 78.537)" fill="#96bde6"/>
              <path id="Path_38" data-name="Path 38" d="M121.19,148.381a13.885,13.885,0,0,0,5.535,1.529,31.556,31.556,0,0,0,6.263.267c2.427-.267,4.855-.607,7.525-1l5.68-.825h-.34a79.326,79.326,0,0,0,13.108,4.1,83.431,83.431,0,0,0-12.647-5.389h-.34l-5.632.753-7.452,1.092a39.328,39.328,0,0,1-6.069,0C123.375,148.672,121.239,148.162,121.19,148.381Z" transform="translate(-120.78 83.397)" fill="#578ccf"/>
              <path id="Path_39" data-name="Path 39" d="M169.067,167.967a6.093,6.093,0,0,1-7.064,0c-2.16-1.311-3.836-3.3-5.9-4.855-6.166-4.369-15.075-3.326-21.046-7.986-.825-.631-1.651-1.7-1.189-2.646s1.6-.971,2.6-.947l25.027.583" transform="translate(-102.871 89.761)" fill="#96bde6"/>
              <path id="Path_40" data-name="Path 40" d="M161.866,152.545a11.432,11.432,0,0,0-2.695-.34c-1.748,0-4.272-.267-7.282-.388l-10.948-.437h-3.18a4.855,4.855,0,0,0-3.665.777,2.136,2.136,0,0,0-.413,2.428,4.272,4.272,0,0,0,1.262,1.626,16.679,16.679,0,0,0,3.131,1.918,96.419,96.419,0,0,0,12.987,3.714,19.108,19.108,0,0,1,5.122,2.427c1.456,1,2.67,2.209,3.908,3.2a8.86,8.86,0,0,0,7.04,2.427,3.385,3.385,0,0,0,2.427-1.359,7.815,7.815,0,0,1-2.427.825,8.69,8.69,0,0,1-6.312-2.719c-1.141-1-2.428-2.258-3.884-3.4a19.422,19.422,0,0,0-5.413-2.622,110.055,110.055,0,0,1-12.744-3.738,16.018,16.018,0,0,1-2.864-1.724c-.8-.655-1.189-1.554-.753-1.893a5.229,5.229,0,0,1,2.646-.388H159.22A10.22,10.22,0,0,0,161.866,152.545Z" transform="translate(-103.244 89.428)" fill="#578ccf"/>
              <path id="Path_41" data-name="Path 41" d="M218.877,393.78l-5.753,63.649-19.1,49.06a6.554,6.554,0,0,0,4.151,8.617h0a6.554,6.554,0,0,0,5.923-1.02c10.754-8.181,50.152-38.524,50.322-43.209C254.61,465.464,265,404.024,265,404.024Z" transform="translate(-17.446 435.574)" fill="#00334a"/>
              <g id="Group_5" data-name="Group 5" transform="translate(180.725 902.155)" opacity="0.6">
                <path id="Path_42" data-name="Path 42" d="M195.47,472.32l56.73-48.55-.291,2.695a9.953,9.953,0,0,1-3.059,6.093c-4.564,4.272-17.454,15.827-47.263,38.84a6.53,6.53,0,0,1-6.117,1Z" transform="translate(-195.47 -423.77)" fill="#fff"/>
              </g>
              <g id="Group_6" data-name="Group 6" transform="translate(224.77 879.822)" opacity="0.6">
                <path id="Path_43" data-name="Path 43" d="M215.594,414.958a3.981,3.981,0,0,0-1.651,5.025,3.787,3.787,0,0,0,4.855,1.675,4.175,4.175,0,0,0,1.748-5.316,3.957,3.957,0,0,0-5.365-1.189" transform="translate(-213.614 -414.57)" fill="#fff"/>
              </g>
              <path id="Path_44" data-name="Path 44" d="M209.912,437.953c-.388.146-1.432-3.35-5.025-5.583a20.127,20.127,0,0,0-7.137-2.233c0-.146.825-.558,2.427-.607a10.2,10.2,0,0,1,5.583,1.675,9.953,9.953,0,0,1,3.811,4.37C210.082,437.031,210.057,437.953,209.912,437.953Z" transform="translate(-11.491 486.607)" fill="#263238"/>
              <path id="Path_45" data-name="Path 45" d="M207.2,439.59c-.316.243-2.136-2.063-5.316-3.374a55.029,55.029,0,0,0-6.093-1.505,7.282,7.282,0,0,1,6.651.219C206.01,436.41,207.563,439.469,207.2,439.59Z" transform="translate(-14.289 493.005)" fill="#263238"/>
              <path id="Path_46" data-name="Path 46" d="M216.747,434.323a65.129,65.129,0,0,0-7.865-5.753c-4.709-2.549-9.2-2.84-9.152-3.277a17.928,17.928,0,0,1,17.017,9.03Z" transform="translate(-8.665 480.333)" fill="#263238"/>
              <path id="Path_47" data-name="Path 47" d="M217.823,423.214c-.218.364-3.544-1.505-8.108-2.185s-8.278,0-8.375-.413A16.312,16.312,0,0,1,217.823,423.214Z" transform="translate(-6.366 472.217)" fill="#263238"/>
              <path id="Path_48" data-name="Path 48" d="M219.021,415.615a31.556,31.556,0,0,0-8.375-2.428,32.648,32.648,0,0,0-8.666,1.141c0-.146.68-.85,2.258-1.529a13.788,13.788,0,0,1,6.506-1.02,14.419,14.419,0,0,1,6.287,2.015C218.536,414.644,219.191,415.47,219.021,415.615Z" transform="translate(-5.452 461.197)" fill="#263238"/>
              <path id="Path_49" data-name="Path 49" d="M211.193,417.774a5.339,5.339,0,0,1,.194-2.428,16.994,16.994,0,0,1,2.622-6.069,7.623,7.623,0,0,1,3.568-3.18,2.67,2.67,0,0,1,2.889.922,4.272,4.272,0,0,1,.68,2.986,9.273,9.273,0,0,1-9.03,7.6,10.754,10.754,0,0,1-9.856-6.773,3.787,3.787,0,0,1,.17-3.107,2.6,2.6,0,0,1,2.84-1.044,8.91,8.91,0,0,1,3.932,2.646,18.471,18.471,0,0,1,3.787,5.437,5.994,5.994,0,0,1,.728,2.306,30.107,30.107,0,0,0-5.195-7.04,8.423,8.423,0,0,0-3.5-2.209,1.384,1.384,0,0,0-1.554.558,2.573,2.573,0,0,0,0,2.039,9.54,9.54,0,0,0,8.593,5.777,8.035,8.035,0,0,0,7.768-6.336,3.083,3.083,0,0,0-.388-2.088,1.408,1.408,0,0,0-1.578-.534,6.6,6.6,0,0,0-3.083,2.622,24.786,24.786,0,0,0-3.593,7.914Z" transform="translate(-5.417 452.993)" fill="#263238"/>
              <path id="Path_50" data-name="Path 50" d="M268.512,682.664,316.163,305.31l-15.245-87.73L211.1,222.435,199.862,675.7a6.87,6.87,0,0,0,5.583,6.967l52.337,8.084a9.394,9.394,0,0,0,10.729-8.084Z" transform="translate(-8.481 184.05)" fill="#09c3ff"/>
              <path id="Path_51" data-name="Path 51" d="M269.555,329.22l86.686,85.788-124.7,30.319,8.86,62.921,168.808-22.964A53.212,53.212,0,0,0,445.135,463.7h0a53.114,53.114,0,0,0,.825-60.979L314.439,209.69l-58.745,19.153Z" transform="translate(36.744 172.787)" fill="#09c3ff"/>
              <path id="Path_52" data-name="Path 52" d="M245.23,249.94a48.962,48.962,0,0,1,3.01,10.778,47.289,47.289,0,0,1,1.772,11.045A51.145,51.145,0,0,1,247,260.985a50.565,50.565,0,0,1-1.772-11.045Z" transform="translate(56.287 230.244)" fill="#455a64"/>
              <path id="Path_53" data-name="Path 53" d="M261.512,396.378l2.063-.68,6.069-1.893,23.255-7.064,84.622-25.44-.218.8L273.261,251.286l1.092-.34c-2.063,17.405-4.224,35.587-6.409,54.133-10.729,89.817-20.828,171.187-28.62,229.981-3.884,29.4-7.282,53.162-9.71,69.572-1.384,8.156-2.427,14.565-3.253,18.813-.437,2.112-.8,3.714-1.044,4.855s-.388,1.651-.388,1.651a7.916,7.916,0,0,1,.267-1.675c.267-1.092.534-2.767.922-4.855.874-4.272,1.7-10.657,3.01-18.837,2.427-16.434,5.632-40.2,9.37-69.62,7.6-58.794,17.527-140.139,28.256-230.005,2.209-18.546,4.37-36.728,6.433-54.133l.146-1.335.922.971L378.032,361.47l.534.583-.753.219L293.07,387.323l-23.353,6.821-6.093,1.748A6.767,6.767,0,0,1,261.512,396.378Z" transform="translate(27.309 229.601)" fill="#455a64"/>
              <path id="Path_54" data-name="Path 54" d="M228.475,616.524c-.34,0,9.564-80.107,22.115-178.882S273.6,258.881,273.942,258.93s-9.54,80.107-22.09,178.882S228.839,616.548,228.475,616.524Z" transform="translate(32.357 243.077)" fill="#455a64"/>
              <path id="Path_55" data-name="Path 55" d="M241.41,233.49a29.132,29.132,0,0,1,1.991,5.85c1.068,3.641,2.427,8.763,3.641,14.444s2.16,10.875,2.719,14.565a28.111,28.111,0,0,1,.607,6.142,31.386,31.386,0,0,1-1.481-6c-.9-4.151-1.942-9.079-3.083-14.565s-2.427-10.341-3.253-14.565a29.129,29.129,0,0,1-1.141-5.875Z" transform="translate(50.834 206.761)" fill="#455a64"/>
              <path id="Path_56" data-name="Path 56" d="M244.857,230.831a3.414,3.414,0,0,1,3.52-.388A4.1,4.1,0,0,1,251,233.55a4.491,4.491,0,0,1-1.966,4.612,4.345,4.345,0,0,1-4.855-.51,3.69,3.69,0,0,1-1.117-3.908,3.617,3.617,0,0,1,1.626-2.161c.558-.316.922-.316.947-.243a4.855,4.855,0,0,0-1.7,2.6,2.791,2.791,0,0,0,1,2.816,3.3,3.3,0,0,0,3.593.316,3.447,3.447,0,0,0,1.456-3.326,3.277,3.277,0,0,0-1.845-2.427A6.481,6.481,0,0,0,244.857,230.831Z" transform="translate(52.946 202.016)" fill="#455a64"/>
              <path id="Path_57" data-name="Path 57" d="M308.32,308.985c-.267.267-5.146-4.224-12.137-8.253s-13.3-6.117-13.181-6.482a37.748,37.748,0,0,1,13.837,5.389,38.209,38.209,0,0,1,11.482,9.346Z" transform="translate(110.202 293.496)" fill="#455a64"/>
              <path id="Path_58" data-name="Path 58" d="M245.514,121.188,195.75,145.221l21.459,149.728-8.423,67.193a26.217,26.217,0,0,0,8.763,23.037h0l80.374-1.578,56.221-30.853L380,348.378,369.413,297.23l4.855-72.558,58.818,31.388a20.464,20.464,0,0,0,14.783,1.772l107.757-27.989-5.608-41.559L452.385,199.33l-74.354-65.688-55.347-12.453L312.877,104.9H256.243l-4.054,2.962a11.968,11.968,0,0,0-4.1,5.608Z" transform="translate(-14.346 23.2)" fill="#1a326a"/>
              <path id="Path_59" data-name="Path 59" d="M272.221,121.51a59.741,59.741,0,0,0-22.406,29.13c-5.68,17.672-18.522,89.113-18.522,89.113l-56.536-35L142.18,239l75.252,66.465a38.33,38.33,0,0,0,41.971,5.8h0a38.354,38.354,0,0,0,21.338-29.348l9.249-67.751Z" transform="translate(-90.816 46.911)" fill="#1a326a"/>
              <path id="Path_60" data-name="Path 60" d="M293.655,212.716l-3.5-5.146-37.213,6.87L246.1,230.291Z" transform="translate(57.529 169.761)" fill="#ffbe9d"/>
              <path id="Path_61" data-name="Path 61" d="M204.73,288.095c33.257,13.375,68.771,8.448,100.425-8.326,9.564-5.073,18.425-11.361,28.038-16.361s20.245-8.666,31.048-7.914,21.677,6.7,26,16.628,0,23.425-10.171,27.139l3.593,3.2c14.929-6.943,22.017-27.042,14.735-41.826-5.583-11.312-17.332-18.085-25.926-27.334-12.647-13.594-13.958-39.908-14.055-60.4" transform="translate(-1.527 120.284)" fill="#1a326a"/>
              <path id="Path_62" data-name="Path 62" d="M261.217,140.641a15.123,15.123,0,0,1-2.427,0,9.418,9.418,0,0,0-5.9,2.719,13.885,13.885,0,0,0-2.937,9.492,32.189,32.189,0,0,0,2.695,12.744l.947,2.088-1.821-1.359a97.953,97.953,0,0,1-12.55-11.094,92.464,92.464,0,0,1-19.274-29.518,67.442,67.442,0,0,1-3.131-10.244,25.939,25.939,0,0,1-.558-3.908,115.323,115.323,0,0,0,4.515,13.813,97.294,97.294,0,0,0,19.42,28.984,103.023,103.023,0,0,0,12.332,11l-.9.753a28.792,28.792,0,0,1-2.063-6.821,29.834,29.834,0,0,1-.558-6.433,14.322,14.322,0,0,1,3.423-10,9.346,9.346,0,0,1,6.384-2.6,10.54,10.54,0,0,1,2.4.388Z" transform="translate(14.932 32.707)" fill="#263238"/>
              <path id="Path_63" data-name="Path 63" d="M236,146.566c4.1-1.772,10.171.825,13.108,4.175,1.942,2.233,3.034,5.292,5.583,6.748s10.657,2.6,13.011.8c0,0,1.432-6.918,2.209-9.71a214.932,214.932,0,0,0,5.51-33.208c-7.817-3.811-5.656-8.812-19.76-7.841a35.878,35.878,0,0,1,.51,19.857" transform="translate(43.111 26.782)" fill="#1b2e59"/>
              <path id="Path_64" data-name="Path 64" d="M256.068,127.663c-.146,0,.51-1.869.8-5.316a38.984,38.984,0,0,0-1.748-14.4l-.17-.583h.583a24.08,24.08,0,0,1,10.39.922,15.8,15.8,0,0,1,4.855,3.471,19.008,19.008,0,0,0,4.855,3.35l.388.194v.413c-.631,5.9-1.335,12.332-2.427,18.983-.728,4.345-1.6,8.545-2.622,12.55s-1.821,7.865-2.67,11.506V159l-.146.121a7.719,7.719,0,0,1-4.175,1,25.487,25.487,0,0,1-3.884-.243,24.838,24.838,0,0,1-3.641-.8,7.817,7.817,0,0,1-3.18-1.724,32.111,32.111,0,0,1-3.738-5.146,13.157,13.157,0,0,0-3.835-3.471,13.691,13.691,0,0,0-6.991-2.185,14.007,14.007,0,0,0-2.622.388,5.437,5.437,0,0,1,2.622-.753,13.278,13.278,0,0,1,7.282,1.942,13.521,13.521,0,0,1,4.151,3.593,31.8,31.8,0,0,0,3.714,4.855,11.894,11.894,0,0,0,6.311,2.185,23.494,23.494,0,0,0,3.714.194,7.016,7.016,0,0,0,3.5-.8l-.218.34c.825-3.666,1.6-7.6,2.6-11.579s1.869-8.156,2.573-12.477c1.117-6.6,1.845-13.011,2.428-18.886l.34.607a20.611,20.611,0,0,1-5.243-3.568,14.3,14.3,0,0,0-4.442-3.3,23.839,23.839,0,0,0-9.9-1.02l.413-.607a37.846,37.846,0,0,1,1.384,14.735,26.987,26.987,0,0,1-.825,3.957,5.627,5.627,0,0,1-.413,1.311Z" transform="translate(43.239 26.435)" fill="#263238"/>
              <path id="Path_65" data-name="Path 65" d="M340.876,331.38v-2.767a17.161,17.161,0,0,0-2.427-7.5,25.246,25.246,0,0,0-8.933-8.618,37.675,37.675,0,0,0-15.924-4.369c-6.166-.558-13.011-.218-20.367-.728a76.782,76.782,0,0,1-22.964-4.855,47.384,47.384,0,0,1-20.707-15.487,36.048,36.048,0,0,1-5.947-12.453,47.625,47.625,0,0,1-1.359-14.152c.364-9.71,2.573-18.716,3.908-27.552a209.707,209.707,0,0,0,2.427-25.634,212.622,212.622,0,0,0-10.365-72.048c-1.02-3.326-1.966-5.85-2.573-7.574-.291-.825-.51-1.481-.68-1.991a2.916,2.916,0,0,1-.194-.68,5.68,5.68,0,0,1,.316.631c.194.437.461,1.141.8,1.942.68,1.7,1.7,4.2,2.816,7.525a201.48,201.48,0,0,1,7.574,28.547,211.185,211.185,0,0,1,3.471,43.695,207.716,207.716,0,0,1-2.427,25.8c-1.311,8.885-3.5,17.963-3.86,27.406a39.423,39.423,0,0,0,7.04,25.829,46.123,46.123,0,0,0,20.148,15.123,75.713,75.713,0,0,0,22.6,4.855c7.282.534,14.128.267,20.391.9A38.112,38.112,0,0,1,330,311.96a25.269,25.269,0,0,1,8.982,8.982,16.627,16.627,0,0,1,2.233,7.719,10,10,0,0,1-.121,2.112A2.311,2.311,0,0,1,340.876,331.38Z" transform="translate(41.355 51.85)" fill="#263238"/>
              <path id="Path_66" data-name="Path 66" d="M317.865,191.79a21.606,21.606,0,0,1-2.792,2.913c-.922.9-2.088,1.991-3.5,3.18s-2.962,2.622-4.855,4.005a132.795,132.795,0,0,1-13.424,9.3A137.176,137.176,0,0,1,256.5,226.6a130.673,130.673,0,0,1-16.046,3.034c-2.306.364-4.394.485-6.239.631s-3.423.243-4.734.267a23.523,23.523,0,0,1-4.03,0,27.96,27.96,0,0,1,4.005-.461,38.741,38.741,0,0,0,4.685-.461c1.821-.243,3.908-.388,6.19-.8a150.777,150.777,0,0,0,15.876-3.3,157.556,157.556,0,0,0,18.765-6.384,154.474,154.474,0,0,0,17.721-8.909,151.045,151.045,0,0,0,13.5-8.982c1.869-1.335,3.471-2.695,4.855-3.835s2.646-2.16,3.617-3.01a28.861,28.861,0,0,1,3.2-2.6Z" transform="translate(28.051 147.235)" fill="#263238"/>
              <path id="Path_67" data-name="Path 67" d="M305.486,159a4.685,4.685,0,0,1-.219,1.335l-.85,3.787a53.424,53.424,0,0,1-1.6,5.923c-.728,2.282-1.432,4.855-2.573,7.719-.558,1.408-1.117,2.889-1.7,4.418s-1.384,3.059-2.088,4.685c-1.408,3.277-3.253,6.579-5.122,10.1a140.042,140.042,0,0,1-33.208,39.592c-3.156,2.427-6.093,4.855-9.079,6.8-1.457,1-2.84,2.015-4.248,2.889l-4.054,2.428a71.97,71.97,0,0,1-7.161,3.908,58.271,58.271,0,0,1-5.535,2.6l-3.593,1.5a7.4,7.4,0,0,1-1.287.437,5.945,5.945,0,0,1,1.189-.68l3.471-1.7c1.529-.7,3.374-1.6,5.438-2.792s4.515-2.427,7.015-4.03l3.981-2.427c1.384-.874,2.743-1.918,4.2-2.913,2.913-1.966,5.8-4.37,8.909-6.846a158.522,158.522,0,0,0,18.23-18.158,161.158,161.158,0,0,0,14.711-21.095c1.894-3.5,3.763-6.748,5.171-9.977.753-1.6,1.529-3.131,2.16-4.636l1.748-4.37c1.214-2.743,1.966-5.34,2.743-7.6s1.384-4.224,1.821-5.85l1.068-3.714A4.855,4.855,0,0,1,305.486,159Z" transform="translate(24.796 100.427)" fill="#263238"/>
              <path id="Path_68" data-name="Path 68" d="M223.486,244.708a14.564,14.564,0,0,1-4.442-3.3A33.572,33.572,0,0,1,208.921,217.3a15.2,15.2,0,0,1,.728-5.462c.218,0,0,2.112.17,5.438A38.039,38.039,0,0,0,219.7,240.8C221.957,243.252,223.7,244.538,223.486,244.708Z" transform="translate(4.429 175.856)" fill="#263238"/>
              <path id="Path_69" data-name="Path 69" d="M214.935,217.59c.364,0-.316,3.229,0,7.04s1.505,6.8,1.165,6.967a14.565,14.565,0,0,1-1.189-14.007Z" transform="translate(11.208 184.064)" fill="#263238"/>
              <path id="Path_70" data-name="Path 70" d="M216.631,248.354a3.884,3.884,0,0,1-.291-1.141c-.17-.9-.364-1.991-.607-3.3-.51-3.059-1.214-7.282-2.039-12.137-1.7-10.268-4.127-24.445-7.04-40.054s-5.753-29.737-7.768-39.957c-1.02-4.855-1.869-9.03-2.427-12.137-.267-1.311-.461-2.427-.631-3.277a3.662,3.662,0,0,1-.146-1.189,4.615,4.615,0,0,1,.388,1.117c.243.9.51,1.966.85,3.253.728,2.816,1.724,6.918,2.889,11.992,2.427,10.147,5.316,24.275,8.253,39.859s5.171,29.858,6.651,40.151c.753,5.171,1.311,9.346,1.651,12.138.146,1.335.267,2.427.364,3.35a3.885,3.885,0,0,1-.1,1.335Z" transform="translate(-14.448 66.396)" fill="#263238"/>
              <path id="Path_71" data-name="Path 71" d="M268.381,251.123a6.677,6.677,0,0,1-.121-1.189V233.791c0-10.705.583-25.489,1.821-41.777s2.864-31,4.127-41.631c.655-5.171,1.189-9.419,1.6-12.574q.291-2.039.51-3.423a5.677,5.677,0,0,1,.243-1.165,3.861,3.861,0,0,1,0,1.214c0,.922-.17,2.063-.267,3.423-.291,3.18-.7,7.428-1.189,12.623-1.044,10.632-2.427,25.343-3.763,41.631s-1.845,31.023-2.185,41.7c-.146,5.195-.267,9.467-.364,12.672l-.121,3.447a3.908,3.908,0,0,1-.291,1.189Z" transform="translate(89.162 63.627)" fill="#263238"/>
              <path id="Path_72" data-name="Path 72" d="M201.8,204.512c-.413.17-3.617-8.666-9.71-18.279s-13.473-15.657-13.157-15.973a22.281,22.281,0,0,1,4.855,3.86,66.752,66.752,0,0,1,9.467,11.409,78.994,78.994,0,0,1,6.8,13.157,24.469,24.469,0,0,1,1.748,5.826Z" transform="translate(-38.362 116.501)" fill="#263238"/>
              <path id="Path_73" data-name="Path 73" d="M205.987,193.975a46.36,46.36,0,0,1-2.719-4.855,37.577,37.577,0,0,0-8.4-9.71,53.164,53.164,0,0,0-11.094-6.773,31.987,31.987,0,0,1-4.855-2.427,19.033,19.033,0,0,1,5.268,1.554,42.506,42.506,0,0,1,11.555,6.627,32.626,32.626,0,0,1,8.375,10.365,15.828,15.828,0,0,1,1.869,5.219Z" transform="translate(-38.37 116.43)" fill="#263238"/>
              <path id="Path_74" data-name="Path 74" d="M225.1,174.71a6.12,6.12,0,0,1-.51,1.068,10.414,10.414,0,0,1-2.209,2.6,14.735,14.735,0,0,1-11.895,3.2,23.037,23.037,0,0,1-14.953-10.56,51.463,51.463,0,0,1-4.855-9.71c-.68-1.772-1.359-3.568-1.942-5.462a15.1,15.1,0,0,1-.68-6.117,8.423,8.423,0,0,1,2.962-5.51,7.016,7.016,0,0,1,6-1.068A11.8,11.8,0,0,1,205,150.726a11.385,11.385,0,0,1-1,9.928,12.4,12.4,0,0,1-6.918,5.316,11,11,0,0,1-7.282-.34,12.138,12.138,0,0,1-4.491-3.059,9.467,9.467,0,0,1-1.893-2.84c-.316-.728-.413-1.117-.364-1.141a15.511,15.511,0,0,0,2.6,3.641,12.308,12.308,0,0,0,4.394,2.743,10.535,10.535,0,0,0,6.676.146,11.482,11.482,0,0,0,6.287-5,10.317,10.317,0,0,0,.8-8.982,10.584,10.584,0,0,0-7.283-6.773,5.777,5.777,0,0,0-4.855.874,7.089,7.089,0,0,0-2.427,4.661c-.437,3.763,1.262,7.452,2.427,10.948a48.556,48.556,0,0,0,4.855,9.71A22.406,22.406,0,0,0,210.658,180.9a14.565,14.565,0,0,0,11.433-2.719A18.352,18.352,0,0,0,225.1,174.71Z" transform="translate(-32.482 77.435)" fill="#fafafa"/>
              <path id="Path_75" data-name="Path 75" d="M298.3,225.461l-.68.558c-.486.413-1.165.922-2.015,1.578a53.64,53.64,0,0,1-8.351,5.243,25.562,25.562,0,0,1-6.821,2.282,17.842,17.842,0,0,1-8.52-.558,30.052,30.052,0,0,1-15.366-13.545,49.5,49.5,0,0,1,.437-51.584,26.7,26.7,0,0,1,11.434-10.681,14.905,14.905,0,0,1,8.181-1.044,11.191,11.191,0,0,1,7.282,4.151,11.9,11.9,0,0,1,2.282,8.278,18.643,18.643,0,0,1-2.622,8.253,26.969,26.969,0,0,1-13.5,10.948,34.738,34.738,0,0,1-17.332,1.8,35.562,35.562,0,0,1-15.609-6.481,53.55,53.55,0,0,1-18.376-25.731,31.266,31.266,0,0,1-2.233-14.735,14.759,14.759,0,0,1,2.84-6.7,10.2,10.2,0,0,1,5.923-3.86,12.963,12.963,0,0,1,12.137,4.224,13.861,13.861,0,0,1,2.937,11.628,18.425,18.425,0,0,1-4.976,9.71,23.6,23.6,0,0,1-8.2,5.365,36.971,36.971,0,0,1-15.415,2.427,88.9,88.9,0,0,1-9.71-1l-2.549-.413-.85-.17h.874l2.549.291c2.233.218,5.535.655,9.71.753a37.5,37.5,0,0,0,15.148-2.427,22.746,22.746,0,0,0,7.889-5.268,17.649,17.649,0,0,0,4.685-9.394,13.012,13.012,0,0,0-2.792-10.851,12.137,12.137,0,0,0-11.264-3.835,11.166,11.166,0,0,0-7.889,9.71,29.517,29.517,0,0,0,2.233,14.177,52.434,52.434,0,0,0,17.963,25.125,34.642,34.642,0,0,0,15.1,6.214,33.233,33.233,0,0,0,16.677-1.724,25.537,25.537,0,0,0,12.866-10.39,17.719,17.719,0,0,0,2.427-7.719,10.536,10.536,0,0,0-2.015-7.4,10.074,10.074,0,0,0-6.554-3.714,13.764,13.764,0,0,0-7.525.947,25.562,25.562,0,0,0-10.9,10.2,47.506,47.506,0,0,0-7.4,26.945,48.136,48.136,0,0,0,6.724,23.547,29.372,29.372,0,0,0,14.832,13.327,20.051,20.051,0,0,0,14.9-1.481,59.476,59.476,0,0,0,8.423-5.025l2.088-1.457A4.075,4.075,0,0,1,298.3,225.461Z" transform="translate(-10.234 63.898)" fill="#fafafa"/>
              <path id="Path_76" data-name="Path 76" d="M240.479,115.222a8.206,8.206,0,0,1-.777,2.16,33.3,33.3,0,0,1-3.131,5.462,39.86,39.86,0,0,1-35.975,17.162,33.139,33.139,0,0,1-6.19-1,7.285,7.285,0,0,1-2.185-.777c0-.218,3.2.7,8.423.9a41.777,41.777,0,0,0,35.223-16.8C239,118.159,240.236,115.1,240.479,115.222Z" transform="translate(-19.385 37.93)" fill="#fafafa"/>
              <path id="Path_77" data-name="Path 77" d="M233.567,119.6a22.4,22.4,0,0,0-6.846,3.374,22.065,22.065,0,0,0-4.442,6.214c-.146,0-.194-.971.291-2.427a11.336,11.336,0,0,1,8.593-7.283C232.644,119.259,233.567,119.453,233.567,119.6Z" transform="translate(23.381 43.869)" fill="#fafafa"/>
              <path id="Path_78" data-name="Path 78" d="M256.308,138.115a5.2,5.2,0,0,1-2.063-.947,16.8,16.8,0,0,1-4.564-4.2,16.579,16.579,0,0,1-3.374-8.593,8.2,8.2,0,0,1,1.5-5.462,5.607,5.607,0,0,1,5.608-2.428,6.19,6.19,0,0,1,4.418,4.248,5.8,5.8,0,0,1-1.117,5.583,7.841,7.841,0,0,1-8.788,2.428,10.026,10.026,0,0,1-4.855-3.981,4.855,4.855,0,0,1-.9-2.088,20.692,20.692,0,0,0,1.311,1.8,10.123,10.123,0,0,0,4.685,3.423,6.967,6.967,0,0,0,7.6-2.209,4.709,4.709,0,0,0,.85-4.491,5.073,5.073,0,0,0-3.52-3.374,4.394,4.394,0,0,0-4.369,1.893,7.283,7.283,0,0,0-1.311,4.637,16.216,16.216,0,0,0,2.937,8.156A25.149,25.149,0,0,0,256.308,138.115Z" transform="translate(51.933 39.627)" fill="#fafafa"/>
              <path id="Path_79" data-name="Path 79" d="M262.435,118.387a30.755,30.755,0,0,0-8.035-5.607,31.556,31.556,0,0,0-9.71-1.651c0-.146,1.044-.583,2.913-.7a15.9,15.9,0,0,1,7.283,1.189,16.531,16.531,0,0,1,5.972,4.2C262.119,117.221,262.581,118.314,262.435,118.387Z" transform="translate(55.516 31.027)" fill="#fafafa"/>
              <path id="Path_80" data-name="Path 80" d="M333.545,137.035a3.036,3.036,0,0,1-.461.291l-1.457.777a58.328,58.328,0,0,1-5.85,2.427,70.541,70.541,0,0,1-22.867,4.3,33.4,33.4,0,0,1-7.768-.753,16.992,16.992,0,0,1-7.647-3.738,11.361,11.361,0,0,1-3.763-8.3,14.1,14.1,0,0,1,3.229-9.127,18.764,18.764,0,0,1,19.42-4.855,22.576,22.576,0,0,1,15.488,15,22.163,22.163,0,0,1-4.637,21.046,33.986,33.986,0,0,1-17.963,9.71,104.925,104.925,0,0,1-18.425,1.869,100.866,100.866,0,0,0-15.9,1.554A32.237,32.237,0,0,0,245.4,178.376a23.206,23.206,0,0,0-3.738,7.549,1.625,1.625,0,0,1,0-.558,6.421,6.421,0,0,1,.388-1.6,20.488,20.488,0,0,1,2.865-5.68A32.261,32.261,0,0,1,264.7,166.359a97.109,97.109,0,0,1,16.021-1.723,103.558,103.558,0,0,0,18.206-1.942,32.99,32.99,0,0,0,17.308-9.37,20.925,20.925,0,0,0,4.345-19.857,21.338,21.338,0,0,0-14.565-14.177,17.672,17.672,0,0,0-18.109,4.515,12.914,12.914,0,0,0-3.01,8.375,10.244,10.244,0,0,0,3.35,7.55,16.191,16.191,0,0,0,7.283,3.568,32.432,32.432,0,0,0,7.525.8,73.553,73.553,0,0,0,22.721-3.86c2.573-.9,4.539-1.7,5.875-2.258A14.352,14.352,0,0,1,333.545,137.035Z" transform="translate(51.162 40.634)" fill="#fafafa"/>
              <path id="Path_81" data-name="Path 81" d="M274.388,173.924c-.219,0-1.044-2.039-3.277-4.855a24.955,24.955,0,0,0-24.785-9.346c-3.52.68-5.559,1.7-5.656,1.505a13.108,13.108,0,0,1,5.462-2.427,23.96,23.96,0,0,1,25.731,9.71,13.085,13.085,0,0,1,2.525,5.413Z" transform="translate(49.777 99.073)" fill="#fafafa"/>
              <path id="Path_82" data-name="Path 82" d="M286.282,172.154a11.821,11.821,0,0,1-3.326,4.855,20.367,20.367,0,0,1-26.7,2.112A12.138,12.138,0,0,1,252.2,174.8c.17-.17,1.554,1.651,4.564,3.568a21.338,21.338,0,0,0,13.084,3.4,21.58,21.58,0,0,0,12.4-5.413C285,174.024,286.088,172.009,286.282,172.154Z" transform="translate(66.236 119.194)" fill="#fafafa"/>
              <path id="Path_83" data-name="Path 83" d="M284.169,154.134c0,.194-1.578-.7-4.151-1.384a17.818,17.818,0,0,0-18.595,5.947c-1.7,2.063-2.428,3.617-2.573,3.544a8.593,8.593,0,0,1,1.869-4.078,16.993,16.993,0,0,1,19.566-6.263A8.642,8.642,0,0,1,284.169,154.134Z" transform="translate(75.729 88.908)" fill="#fafafa"/>
              <path id="Path_84" data-name="Path 84" d="M346.5,145.407a12.6,12.6,0,0,1,.437,1.8,12.884,12.884,0,0,1,.291,2.233,17.755,17.755,0,0,1,0,3.083A30.587,30.587,0,0,1,340.26,170.6a31.874,31.874,0,0,1-10.365,8.666,32.237,32.237,0,0,1-15.148,3.471,40.782,40.782,0,0,1-31.193-15.415,24.542,24.542,0,0,1-4.394-8.423,16,16,0,0,1,.146-9.249,11.919,11.919,0,0,1,5.68-6.943,12.963,12.963,0,0,1,8.545-1,14.249,14.249,0,0,1,7.282,3.811,16.992,16.992,0,0,1,3.981,6.579,22.163,22.163,0,0,1-.121,13.545,25.563,25.563,0,0,1-5.729,9.71,26.7,26.7,0,0,1-6.676,5.146,25.565,25.565,0,0,1-4.855,1.991,12.134,12.134,0,0,1-1.845.34,36.028,36.028,0,0,0,6.554-2.743,26.217,26.217,0,0,0,11.8-14.565,21.386,21.386,0,0,0,0-12.939,15.51,15.51,0,0,0-3.763-6.117A13.23,13.23,0,0,0,293.507,143a11.968,11.968,0,0,0-7.768.922,10.632,10.632,0,0,0-5.049,6.263,14.565,14.565,0,0,0-.121,8.52,22.939,22.939,0,0,0,4.175,7.986,39.835,39.835,0,0,0,30.2,15.026,31.722,31.722,0,0,0,32.092-29.057A48.714,48.714,0,0,0,346.5,145.407Z" transform="translate(103.848 75.301)" fill="#fafafa"/>
              <path id="Path_85" data-name="Path 85" d="M317.065,194.094a6.9,6.9,0,0,1-1.481-1.675,17.43,17.43,0,0,1-2.646-5.486,22.408,22.408,0,0,1-.364-9.03A82.949,82.949,0,0,1,315,167.173a77.044,77.044,0,0,1,8.69-17.915c1.359-2.136,2.427-3.86,3.35-5a8.738,8.738,0,0,1,1.384-1.748,58.087,58.087,0,0,1-3.957,7.282,89.815,89.815,0,0,0-8.254,17.818,99.306,99.306,0,0,0-2.427,10.535,22.7,22.7,0,0,0,0,8.642,32.334,32.334,0,0,0,3.277,7.307Z" transform="translate(151.997 76.888)" fill="#fafafa"/>
              <path id="Path_86" data-name="Path 86" d="M339.03,140.75a5.95,5.95,0,0,1,.728,1.748,30.343,30.343,0,0,1,1.214,4.976,44.5,44.5,0,0,1-7.258,32.456,29.847,29.847,0,0,1-3.2,4.005c-.85.874-1.335,1.335-1.408,1.287s1.627-2.16,3.86-5.777a50.787,50.787,0,0,0,6.239-15.317,50.081,50.081,0,0,0,.8-16.507C339.588,143.372,338.811,140.823,339.03,140.75Z" transform="translate(176.009 74.376)" fill="#fafafa"/>
              <path id="Path_87" data-name="Path 87" d="M303.366,192.222a5.488,5.488,0,0,1-1.044-.558,30.89,30.89,0,0,0-2.961-1.6,35.128,35.128,0,0,0-11.846-3.326A35.95,35.95,0,0,0,269.7,189.6a30.588,30.588,0,0,0-8.909,5.9,18.208,18.208,0,0,0-3.5,4.321,8.665,8.665,0,0,0-1.214,5.34,6.36,6.36,0,0,0,2.573,4.564,5.2,5.2,0,0,0,4.855.218,8.69,8.69,0,0,0,4.515-8.52,17.259,17.259,0,0,0-9.006-14.565,17.647,17.647,0,0,0-11.895-1.554,41.863,41.863,0,0,0-4.321,1.384,4.224,4.224,0,0,1,1.02-.655,17,17,0,0,1,3.18-1.214,17.7,17.7,0,0,1,12.429,1.262,18.109,18.109,0,0,1,9.71,15.366,12.892,12.892,0,0,1-1.044,5.486,8.182,8.182,0,0,1-4.127,4.2,6.433,6.433,0,0,1-6.142-.316,7.6,7.6,0,0,1-3.156-5.462,9.71,9.71,0,0,1,1.384-6.093,18.858,18.858,0,0,1,3.738-4.612,31.556,31.556,0,0,1,9.3-6.069,36.413,36.413,0,0,1,18.376-2.695,32.648,32.648,0,0,1,11.967,3.787,21.394,21.394,0,0,1,2.889,1.821C303.075,191.907,303.415,192.174,303.366,192.222Z" transform="translate(52.818 136.437)" fill="#fafafa"/>
              <path id="Path_88" data-name="Path 88" d="M275.438,195.8a15.807,15.807,0,0,1-2.937,5.559c-1.918,2.889-3.69,5.073-3.981,4.855a15.8,15.8,0,0,1,2.937-5.559C273.375,197.788,275.147,195.6,275.438,195.8Z" transform="translate(89.533 152.938)" fill="#fafafa"/>
              <path id="Path_89" data-name="Path 89" d="M292.121,215.073c-.194,0-.534-.85-1.384-2.112a12.55,12.55,0,0,0-9.88-5.486,12.721,12.721,0,0,1-2.428,0,3.946,3.946,0,0,1,2.428-.825,11.045,11.045,0,0,1,10.681,5.947C292.218,214.005,292.267,215.049,292.121,215.073Z" transform="translate(103.68 168.399)" fill="#fafafa"/>
              <path id="Path_90" data-name="Path 90" d="M262.66,205c0,.17-2.913,1.651-7.6,4.345a65.667,65.667,0,0,0-16.507,12.744,35.223,35.223,0,0,0-8.763,18.546,43.842,43.842,0,0,0,.146,8.666,7.283,7.283,0,0,1-.68-2.282,21.992,21.992,0,0,1-.34-6.457,33.985,33.985,0,0,1,8.691-19.3,59.569,59.569,0,0,1,16.992-12.72c2.428-1.238,4.418-2.16,5.8-2.767A7.647,7.647,0,0,1,262.66,205Z" transform="translate(32.86 166.092)" fill="#fafafa"/>
              <path id="Path_91" data-name="Path 91" d="M260.224,223.694a8.81,8.81,0,0,1-2.646-2.913,16.24,16.24,0,0,1,1.529-18.133,7.113,7.113,0,0,1,3.083-2.428c.146.194-1.044,1.092-2.427,2.986a17.429,17.429,0,0,0-1.432,17.162C259.374,222.432,260.394,223.548,260.224,223.694Z" transform="translate(70.957 159.269)" fill="#fafafa"/>
              <path id="Path_92" data-name="Path 92" d="M279.66,195.662a14.617,14.617,0,0,0-1.408-1.408,10,10,0,0,0-5.049-2.233,12.623,12.623,0,0,0-8.472,1.748,25.9,25.9,0,0,0-8.035,8.5c-2.427,3.69-4.418,8.132-7.5,12.453a26.533,26.533,0,0,1-13.375,10,24.833,24.833,0,0,1-18.376-1.068,26.314,26.314,0,0,1-13.521-14.419,15.706,15.706,0,0,1-.413-10.22,14.249,14.249,0,0,1,6.311-7.719,14.566,14.566,0,0,1,9.37-2.16,15.536,15.536,0,0,1,8.326,3.957,20.366,20.366,0,0,1,6.579,15.269,25.149,25.149,0,0,1-4.515,13.861,28.233,28.233,0,0,1-8.788,8.253,35.468,35.468,0,0,1-8.326,3.641,39.289,39.289,0,0,1-5.608,1.165l-1.481.17h-.534a13.888,13.888,0,0,1,1.966-.413,42.637,42.637,0,0,0,5.51-1.408,35.512,35.512,0,0,0,8.108-3.763,27.649,27.649,0,0,0,8.4-8.132,24.444,24.444,0,0,0,4.224-13.375,19.42,19.42,0,0,0-6.311-14.4,14.225,14.225,0,0,0-7.7-3.617,13.448,13.448,0,0,0-8.593,1.991A13.278,13.278,0,0,0,204.7,199.4a14.565,14.565,0,0,0,.413,9.419,25.222,25.222,0,0,0,12.866,13.715,23.571,23.571,0,0,0,17.478,1.068,25.416,25.416,0,0,0,12.89-9.516c3.034-4.151,5.122-8.593,7.6-12.307a26.337,26.337,0,0,1,8.448-8.618,12.987,12.987,0,0,1,8.885-1.626,9.929,9.929,0,0,1,5.146,2.427A6.144,6.144,0,0,1,279.66,195.662Z" transform="translate(-4.214 143.315)" fill="#fafafa"/>
              <path id="Path_93" data-name="Path 93" d="M241.288,225.265a11.142,11.142,0,0,1-3.908-3.083,26.7,26.7,0,0,1-6.724-22.527,11.628,11.628,0,0,1,1.578-4.855c.218,0-.364,1.869-.68,4.855a29.616,29.616,0,0,0,6.481,21.847C239.953,223.906,241.434,225.1,241.288,225.265Z" transform="translate(34.959 151.532)" fill="#fafafa"/>
              <path id="Path_94" data-name="Path 94" d="M289.119,201.226s-1.7-.825-4.855-2.063a58.26,58.26,0,0,0-34.956-2.622,47.627,47.627,0,0,0-11.652,4.37,7.841,7.841,0,0,0-3.86,4.612,4.418,4.418,0,0,0,2.427,4.855,2.573,2.573,0,0,0,2.427-.777,6.044,6.044,0,0,0,1.457-2.695,22.236,22.236,0,0,0,.558-6.457,28.888,28.888,0,0,0-3.107-11.919,27.867,27.867,0,0,0-6.846-8.812,27.408,27.408,0,0,0-8.472-4.855,29.713,29.713,0,0,0-14.055-1.408c-3.35.534-5.122,1.287-5.146,1.165a4.857,4.857,0,0,1,1.238-.583,26.993,26.993,0,0,1,18.279,0,28.474,28.474,0,0,1,8.836,4.855,29.13,29.13,0,0,1,7.283,9.079,29.956,29.956,0,0,1,3.3,12.4,23.572,23.572,0,0,1-.583,6.846,7.67,7.67,0,0,1-1.772,3.253,3.884,3.884,0,0,1-3.787,1.092,4.855,4.855,0,0,1-2.889-2.6,6.384,6.384,0,0,1-.534-3.738,9.006,9.006,0,0,1,4.467-5.438,46.872,46.872,0,0,1,12.016-4.418,57.531,57.531,0,0,1,21.508-.8,54.062,54.062,0,0,1,13.91,4.078,34.342,34.342,0,0,1,3.593,1.845Q289.167,201.153,289.119,201.226Z" transform="translate(-3.939 119.617)" fill="#fafafa"/>
              <path id="Path_95" data-name="Path 95" d="M173.058,224.813a44.919,44.919,0,0,0,3.908-3.593,33.717,33.717,0,0,0,7.622-12.137,26.363,26.363,0,0,0-.607-20.537,26,26,0,0,0-7.744-9.564,21.847,21.847,0,0,0-12.137-4.588,14.006,14.006,0,0,0-6.409,1.335,8.2,8.2,0,0,0-4.272,4.345,6.239,6.239,0,0,0,.874,5.632,9.152,9.152,0,0,0,4.588,3.423,12.6,12.6,0,0,0,10.511-1.8,17.673,17.673,0,0,0,6.384-7.282,36.777,36.777,0,0,0,3.034-13.934,26.736,26.736,0,0,1,.17-3.957,4.56,4.56,0,0,1,.121-1.359,4.565,4.565,0,0,1,0,1.359v3.957a35.2,35.2,0,0,1-2.573,14.589,18.546,18.546,0,0,1-6.6,7.719,13.594,13.594,0,0,1-11.433,2.015,10.147,10.147,0,0,1-5.243-3.835,7.4,7.4,0,0,1-1.044-6.724,9.2,9.2,0,0,1,4.855-5.049,15.391,15.391,0,0,1,7.015-1.481,22.964,22.964,0,0,1,12.938,4.855,27.09,27.09,0,0,1,8.059,10.074,25.489,25.489,0,0,1,2.428,11.385,29.253,29.253,0,0,1-1.991,9.953,33.135,33.135,0,0,1-8.132,12.138,21.384,21.384,0,0,1-3.059,2.427A6.614,6.614,0,0,1,173.058,224.813Z" transform="translate(-77.053 102.997)" fill="#fafafa"/>
              <path id="Path_96" data-name="Path 96" d="M188.025,239.236a9.006,9.006,0,0,1-1.893-2.015,39.085,39.085,0,0,1-4.175-6.311,44.787,44.787,0,0,1,3.131-47.506,40,40,0,0,1,4.855-5.7,10.366,10.366,0,0,1,2.209-1.7c.17.194-2.864,2.767-6.36,7.986a46.122,46.122,0,0,0-3.083,46.584,95.214,95.214,0,0,0,5.316,8.666Z" transform="translate(-41.697 124.695)" fill="#fafafa"/>
              <path id="Path_97" data-name="Path 97" d="M231.745,201.1c-.218,0-1.238-3.641-4.248-9.006a49.909,49.909,0,0,0-38.354-25.367c-6.117-.68-9.953-.146-9.953-.388a10.293,10.293,0,0,1,2.67-.461,44.545,44.545,0,0,1,7.282,0,48.016,48.016,0,0,1,39.083,25.853,41.266,41.266,0,0,1,2.84,6.8A9.71,9.71,0,0,1,231.745,201.1Z" transform="translate(-37.985 110.032)" fill="#fafafa"/>
              <g id="Group_7" data-name="Group 7" transform="translate(258.38 346.526)" opacity="0.3">
                <path id="Path_98" data-name="Path 98" d="M229.184,227.433c-2.428,1-2.112,4.685-.17,6.287a10.39,10.39,0,0,0,7.282,1.554,93.75,93.75,0,0,0,71.927-40.393c-21.847,17.988-50.735,24.809-78.432,31.072" transform="translate(-227.46 -194.88)"/>
              </g>
              <g id="Group_8" data-name="Group 8" transform="translate(254.597 276.929)" opacity="0.3">
                <path id="Path_99" data-name="Path 99" d="M227.063,243.6c-2.428-3.665-.777-8.812,2.427-11.919A40.732,40.732,0,0,1,240.706,225a70.835,70.835,0,0,0,32.723-33.572c4.418-9.564,7.744-21.289,17.527-25.222a94.818,94.818,0,0,1-62.411,74.427" transform="translate(-225.902 -166.21)"/>
              </g>
              <g id="Group_9" data-name="Group 9" transform="translate(178.589 228.452)" opacity="0.3">
                <path id="Path_100" data-name="Path 100" d="M202.868,146.24a246.341,246.341,0,0,1-5.583,79.331A66.831,66.831,0,0,0,194.59,242.3,22.236,22.236,0,0,0,202.649,258c4.03-9.3,4.1-18.255,5.8-28.256,1.529-9.006,4.1-30.052,4.1-30.368.364-18.4-3.981-34.179-11.069-50.759" transform="translate(-194.59 -146.24)"/>
              </g>
              <g id="Group_10" data-name="Group 10" transform="translate(231.217 148.345)" opacity="0.3">
                <path id="Path_101" data-name="Path 101" d="M217.654,113.653a96.906,96.906,0,0,0,27.479,51.56c5.365,5.219,12.137,10.05,19.541,9.71a45.733,45.733,0,0,1-3.763-28.6,118.246,118.246,0,0,0,20,10.875,39.689,39.689,0,0,0,22.333,2.427l4.612-40.126a7.5,7.5,0,0,0-.413-4.515,2.6,2.6,0,0,0-3.86-.922,3.86,3.86,0,0,0-.752,1.772c-2.719,11.773-4.248,22.333-6.991,34.131-1.966,1.942-8.011,1.141-11.992-.34-3.471-1.287-4.855-4.151-7.088-7.04s-1.893-2.428-5.292-3.835c-6.263-2.646-18.279-.534-20.9,5.073s-.631,13.011,1.117,18.546A84.113,84.113,0,0,1,216.27,113.24" transform="translate(-216.27 -113.24)"/>
              </g>
              <g id="Group_11" data-name="Group 11" transform="translate(359.874 205.707)" opacity="0.3">
                <path id="Path_102" data-name="Path 102" d="M274.368,136.87c-.486.971,15.123,53.6,15.123,53.6L269.27,178.938Z" transform="translate(-269.27 -136.87)"/>
              </g>
              <path id="Path_103" data-name="Path 103" d="M219.611,99.7v83.773a20.27,20.27,0,0,0,4.855,13.084h0a60.882,60.882,0,0,0,16.847,13.934l16.992,9.54,13.982-12.5a20.367,20.367,0,0,0,6.773-14.346c.243-6.117.218-12.137.218-12.137s23.692-1.7,25.926-25.052c1.044-11.021,1.384-33.548,1.432-54.3a45.443,45.443,0,0,0-41.9-45.685h-.655A43.428,43.428,0,0,0,219.611,99.7Z" transform="translate(19.714 -46.612)" fill="#96bde6"/>
              <path id="Path_104" data-name="Path 104" d="M261.568,114.211A56.682,56.682,0,0,1,231.88,102.68S238,120.4,261.52,120.231Z" transform="translate(37.23 20.031)" fill="#578ccf"/>
              <path id="Path_113" data-name="Path 113" d="M249.225,73.362h-.146a18.449,18.449,0,0,0-7.816,11.482v.485c-1.481,6.579-1.869,13.375-3.4,19.954s-1.238,11.6-7.841,13.084a8.739,8.739,0,0,1-9.176-3.714,5.971,5.971,0,0,1-.607-3.107c0-16.216-3.156-22.5-1.748-39.325a14.273,14.273,0,0,1,6.846-11.069c3.738-2.233,8.253-4.515,12.137-2.427s8.253,9.928,11.021,13.3" transform="translate(17.603 -43.891)" fill="#1a326a"/>
              <path id="Path_114" data-name="Path 114" d="M232.2,79.3c-.364-.194-15.657-6.069-16.483,9.953s15.463,13.545,15.512,13.084S232.2,79.3,232.2,79.3Z" transform="translate(14.115 -15.068)" fill="#96bde6"/>
              <path id="Path_115" data-name="Path 115" d="M224.264,92.984a4.626,4.626,0,0,1-.777.388,2.719,2.719,0,0,1-2.088,0,6.894,6.894,0,0,1-2.889-6.384,8.981,8.981,0,0,1,1-3.957,3.229,3.229,0,0,1,2.209-2.039,1.432,1.432,0,0,1,1.6.85c.194.461,0,.777.146.8s.364-.243.267-.9a1.7,1.7,0,0,0-.583-1.044,1.99,1.99,0,0,0-1.505-.485,3.908,3.908,0,0,0-3.059,2.427,9.71,9.71,0,0,0-1.189,4.418,7.282,7.282,0,0,0,3.714,7.137,3.059,3.059,0,0,0,2.573-.291C224.215,93.372,224.312,93.033,224.264,92.984Z" transform="translate(16.493 -12.05)" fill="#578ccf"/>
              <path id="Path_116" data-name="Path 116" d="M226.365,69.39c-3.423-6.724,8.132-15,16.216-16.847s18.182,2.889,25.829,6.142c4.855,2.039,9.564,4.855,14.784,4.855a35.781,35.781,0,0,0,10.341-1.724,26.29,26.29,0,0,1,10.414-1.189,9.71,9.71,0,0,1,8.059,6.142,6.045,6.045,0,0,1-4.855,7.817,7.889,7.889,0,1,1,.874,14.735c2.427-1.554,5.68,1.578,5.146,4.394a8.278,8.278,0,0,1-5.947,5.607c-6.918,2.428-14.565.8-21.313-2.088s-12.817-7.04-19.42-10.1-17.721-8.5-24.785-6.627c-5.219,1.359-9.224,7.161-11.968,5.559a9.71,9.71,0,0,1-4.442-7.549,28.209,28.209,0,0,1,1.068-9.079" transform="translate(27.791 -52.13)" fill="#1a326a"/>
              <path id="Path_117" data-name="Path 117" d="M306.466,71.706c-.121,0-.922,1.092-2.792,2.816a21.993,21.993,0,0,1-9.37,5,20.269,20.269,0,0,1-15.2-1.893c-5.219-2.864-9.467-8.132-14.444-13.181a33.354,33.354,0,0,0-17.259-10.1,18.5,18.5,0,0,0-15.779,4.03A13.886,13.886,0,0,0,227.16,68.4a10.246,10.246,0,0,0,.437,2.986,3.205,3.205,0,0,0,.437.971,24.1,24.1,0,0,1-.267-3.933,13.691,13.691,0,0,1,4.612-9.225,17.526,17.526,0,0,1,14.711-3.423,32.358,32.358,0,0,1,16.41,9.71c4.855,4.855,9.249,10.317,14.856,13.327a21.848,21.848,0,0,0,25.683-3.933,17.216,17.216,0,0,0,1.893-2.428C306.345,72.046,306.515,71.73,306.466,71.706Z" transform="translate(30.492 -49.518)" fill="#324e8f"/>
              <path id="Path_118" data-name="Path 118" d="M222.532,102.309a4.257,4.257,0,0,0,1.432-1.6,10.8,10.8,0,0,0,1.287-5.729c0-5.195-4.03-11.094-4.03-18.255a16.215,16.215,0,0,1,2.573-9.394,12.138,12.138,0,0,1,6.409-4.637,10.535,10.535,0,0,1,5.389-.291c1.287.316,1.942.68,2.015.558s-.534-.631-1.821-1.141a9.977,9.977,0,0,0-5.875-.218,12.963,12.963,0,0,0-7.282,4.855,16.993,16.993,0,0,0-2.962,10.268,29.4,29.4,0,0,0,2.258,10.317A31.24,31.24,0,0,1,224.159,95a12.477,12.477,0,0,1-1.626,7.307Z" transform="translate(19.778 -39.096)" fill="#324e8f"/>
            </g>
            <g id="freepik--Lines--inject-288" transform="translate(0 238.478)">
              <path id="Path_119" data-name="Path 119" d="M454.335,268.88h-3.617l-10.584.146c-9.322.146-23.061.51-40.733,1.359s-39.277,2.427-64.256,5.34c-12.453,1.505-25.8,3.2-39.859,5.535s-28.863,5.049-44.278,8.569-31.557,7.7-47.87,13.06A319.617,319.617,0,0,0,153.5,323.353a160.214,160.214,0,0,0-23.789,15.22,75.813,75.813,0,0,0-19.42,21.313c-.607,1.068-1.238,2.112-1.8,3.2l-1.359,3.423-.7,1.724c-.194.583-.291,1.189-.461,1.8l-.85,3.593a36.024,36.024,0,0,0,.728,14.832c2.427,9.831,8.86,18.3,16.313,25.44,15.2,14.3,34.592,24.275,54.716,32.577a450.989,450.989,0,0,0,63.77,20.172A839.378,839.378,0,0,0,379.81,487.136a1109.834,1109.834,0,0,0,140.795.558A887.845,887.845,0,0,0,650.622,470.7a548.906,548.906,0,0,0,58.939-15.9,292.685,292.685,0,0,0,52.7-22.964,145.918,145.918,0,0,0,22.211-15.8,64.139,64.139,0,0,0,16.07-20.488l1.214-2.962a16.989,16.989,0,0,0,1.02-3.01l.728-3.059c.121-.51.291-1.02.364-1.529v-1.578a30.492,30.492,0,0,0-.923-12.138,42.992,42.992,0,0,0-5.122-10.948,66.237,66.237,0,0,0-7.525-9.249A112.914,112.914,0,0,0,772.53,336.51,183.1,183.1,0,0,0,753.693,325.3a323.882,323.882,0,0,0-36.7-16.361,559.366,559.366,0,0,0-61.561-18.983c-17.162-4.272-30.635-6.991-39.787-8.739-4.564-.9-8.083-1.481-10.414-1.942l-3.568-.68s4.855.7,14.031,2.428,22.648,4.3,39.859,8.521a545.987,545.987,0,0,1,61.683,18.789,324.529,324.529,0,0,1,36.849,16.288,187.253,187.253,0,0,1,18.934,11.239,114.284,114.284,0,0,1,17.939,14.735,67.981,67.981,0,0,1,7.622,9.346,43.686,43.686,0,0,1,5.316,11.191,31.559,31.559,0,0,1,.971,12.623l-.122,1.6a7.418,7.418,0,0,1-.364,1.578l-.753,3.132a16.993,16.993,0,0,1-1.044,3.083l-1.214,3.034a65.371,65.371,0,0,1-16.288,20.828A145.64,145.64,0,0,1,762.7,432.979a293.479,293.479,0,0,1-52.822,23.11,547.061,547.061,0,0,1-59.061,16A887.133,887.133,0,0,1,520.63,489.078a1107.586,1107.586,0,0,1-140.965-.534,839.448,839.448,0,0,1-139.387-20.561,448.181,448.181,0,0,1-63.94-20.245c-20.173-8.4-39.665-18.376-55.056-32.844-7.55-7.282-14.177-15.876-16.628-26.023a37.287,37.287,0,0,1-.728-15.269l.9-3.714c.146-.631.267-1.238.461-1.845l.7-1.772,1.432-3.5c.558-1.117,1.214-2.209,1.821-3.3a77,77,0,0,1,19.784-21.6,163.082,163.082,0,0,1,23.984-15.293,318.523,318.523,0,0,1,49.812-20.464c16.458-5.34,32.528-9.516,47.967-13.011s30.3-6.263,44.375-8.472,27.431-4.005,39.908-5.462c25-2.792,46.632-4.272,64.3-5.122s31.436-1.068,40.758-1.141h14.2Z" transform="translate(-18.725 18.802)" fill="#1a326a"/>
              <path id="Path_120" data-name="Path 120" d="M286.988,203.416s-1.384.316-4.078.85-6.724,1.311-11.992,2.427c-10.535,2.185-26.047,5.559-45.734,10.948a468.773,468.773,0,0,0-69.96,24.785c-6.579,3.01-13.327,6.336-20.051,10.147a191.113,191.113,0,0,0-20.124,12.914,112.493,112.493,0,0,0-18.57,16.992,58.624,58.624,0,0,0-12.6,23.11,42.335,42.335,0,0,0,2.015,27.164,69.815,69.815,0,0,0,16.8,23.522c14.371,13.764,32.6,24.275,52,33.184,39.107,17.769,83.749,29.688,131.085,38.573a1096.332,1096.332,0,0,0,150.5,16.6,1298.065,1298.065,0,0,0,162.642-2.889c55.492-4.636,109.5-12.793,160.336-26.144a479.8,479.8,0,0,0,73.019-25.052,251.9,251.9,0,0,0,32.747-17.478,125.956,125.956,0,0,0,27.795-23.45c7.744-9.055,13.448-20.148,13.788-31.849a32.329,32.329,0,0,0-.146-4.345,31.56,31.56,0,0,0-.461-4.3l-.947-4.224a31.012,31.012,0,0,0-1.384-4.078,61.73,61.73,0,0,0-8.326-14.88A114.433,114.433,0,0,0,870.7,263.206a225.545,225.545,0,0,0-28.183-16.483,399.669,399.669,0,0,0-57.726-22.649c-19.032-5.947-37.578-10.681-55.4-14.565a1066.676,1066.676,0,0,0-171.405-21.847c-20.391-1.044-36.267-1.092-47.021-1.359l-12.137-.267-4.151-.146h4.151l12.137.146c10.754.194,26.7.146,47.045,1.141A1055.269,1055.269,0,0,1,729.593,208.66c17.842,3.933,36.412,8.618,55.492,14.565a397.245,397.245,0,0,1,57.9,22.673,223.621,223.621,0,0,1,28.353,16.361,115.816,115.816,0,0,1,24.882,22.94,62.437,62.437,0,0,1,8.5,15.172,28.118,28.118,0,0,1,1.408,4.175l1,4.321a29.655,29.655,0,0,1,.461,4.418,30.237,30.237,0,0,1,.17,4.442,45.274,45.274,0,0,1-4.224,17.381,64.543,64.543,0,0,1-9.71,15.2A126.373,126.373,0,0,1,865.751,374a249.838,249.838,0,0,1-33.135,17.721,483.069,483.069,0,0,1-73.189,25.173c-50.978,13.376-104.989,21.556-160.555,26.193a1295.692,1295.692,0,0,1-162.642,2.864,1098.66,1098.66,0,0,1-150.5-16.677c-47.458-8.958-92.245-20.925-131.376-38.84-19.42-9.055-37.748-19.541-52.24-33.475a70.956,70.956,0,0,1-16.992-23.838,43.331,43.331,0,0,1-1.991-27.771,59.181,59.181,0,0,1,12.793-23.4,112.271,112.271,0,0,1,18.765-17.187,189.763,189.763,0,0,1,20.221-12.914c6.748-3.811,13.521-7.137,20.124-10.147a466.616,466.616,0,0,1,70.227-24.59c19.735-5.316,35.271-8.618,45.831-10.73S286.988,203.416,286.988,203.416Z" transform="translate(-49.753 -99.665)" fill="#1a326a"/>
              <path id="Path_121" data-name="Path 121" d="M303.268,348.8l-12.137,1.918c-7.938,1.262-19.614,3.277-34.543,6.53a443.235,443.235,0,0,0-53.4,15.075,252.468,252.468,0,0,0-31.8,13.837,135.957,135.957,0,0,0-16.118,9.856,83.363,83.363,0,0,0-14.832,13.206,48.11,48.11,0,0,0-5.875,8.448,33.767,33.767,0,0,0-3.617,9.71c-.121.874-.34,1.748-.413,2.646l-.17,2.67c0,1.772.243,3.568.388,5.365a51.15,51.15,0,0,0,1.408,5.268l1.02,2.549.51,1.287.68,1.19a59.861,59.861,0,0,0,14.565,17.162,119.715,119.715,0,0,0,19.566,13.133,260.042,260.042,0,0,0,45.758,19.1,470.7,470.7,0,0,0,50.977,13.036,757.024,757.024,0,0,0,112.3,13.424A911.236,911.236,0,0,0,498.9,522.1c41.461-3.593,81.806-9.928,119.6-20.609a301.17,301.17,0,0,0,53.89-20.536,135.647,135.647,0,0,0,23.425-15.123c1.845-1.384,3.423-3.083,5.122-4.612s3.083-3.35,4.636-5a44.026,44.026,0,0,0,6.894-11.531,30.926,30.926,0,0,0-1.068-25.61,61.512,61.512,0,0,0-16.7-19.42c-13.376-10.632-28.572-17.793-43.4-23.741a366.751,366.751,0,0,0-44.156-14.152c-14.419-3.714-28.426-6.651-41.85-9.006A830.007,830.007,0,0,0,436.634,340.98l-47.409-.243s16.871-.218,47.409,0a822.141,822.141,0,0,1,128.657,11.531c13.473,2.428,27.479,5.268,41.923,8.982A364.9,364.9,0,0,1,651.589,375.5c14.856,5.947,30.1,13.108,43.574,23.814A62.262,62.262,0,0,1,712.155,419a31.557,31.557,0,0,1,1.092,26.144,45.323,45.323,0,0,1-6.991,11.725c-1.578,1.675-3.01,3.5-4.709,5.073a62.044,62.044,0,0,1-5.146,4.637,135.535,135.535,0,0,1-23.571,15.245,301.9,301.9,0,0,1-54.012,20.61,647.981,647.981,0,0,1-119.724,20.634,913.081,913.081,0,0,1-121.52,2.112A761.141,761.141,0,0,1,265.2,511.705,476.288,476.288,0,0,1,214.227,498.6a257.825,257.825,0,0,1-45.88-19.177,121.362,121.362,0,0,1-19.638-13.23A60.032,60.032,0,0,1,134,448.833l-.7-1.214-.51-1.311-1.044-2.573c-.655-1.748-.922-3.593-1.408-5.365a20.765,20.765,0,0,1-.388-5.486l.17-2.719a17,17,0,0,1,.437-2.67,33.988,33.988,0,0,1,3.666-9.977A49.059,49.059,0,0,1,140.164,409a83.31,83.31,0,0,1,14.929-13.278,139.293,139.293,0,0,1,16.216-9.88,249.069,249.069,0,0,1,31.606-13.861A438.465,438.465,0,0,1,256.49,357c14.929-3.2,26.7-5.171,34.568-6.384S303.268,348.8,303.268,348.8Z" transform="translate(19.075 121.239)" fill="#1a326a"/>
              <path id="Path_122" data-name="Path 122" d="M571.64,473.509a25.149,25.149,0,0,0-2.015-8.86c-2.257-5.559-8.3-12.477-17.793-18.74-19.056-12.55-50.977-23.086-91.079-29.543a553.039,553.039,0,0,0-66.125-6.481,636.661,636.661,0,0,0-76.345,1.408c-13.424,1.044-27.139,2.6-41.049,4.855a388.349,388.349,0,0,0-42.141,8.909c-7.064,1.893-14.128,4.1-21.095,6.651a169.7,169.7,0,0,0-20.609,8.982,83.362,83.362,0,0,0-18.667,12.939c-5.51,5.146-10,12.137-10.123,19.905s4.588,14.759,10.1,19.93a83.265,83.265,0,0,0,18.449,12.89,165.978,165.978,0,0,0,20.609,8.982,218.65,218.65,0,0,0,21.095,6.676,388.743,388.743,0,0,0,42.166,8.909c13.909,2.209,27.625,3.763,41.049,4.855a632.013,632.013,0,0,0,76.369,1.408,553.078,553.078,0,0,0,66.319-6.554c40.151-6.457,72.024-16.992,91.1-29.543,9.491-6.263,15.512-13.181,17.769-18.74a25.075,25.075,0,0,0,2.015-8.836,16.351,16.351,0,0,1-.17,2.306,11.982,11.982,0,0,1-.51,2.816,17.848,17.848,0,0,1-1.262,3.739c-2.233,5.607-8.254,12.574-17.745,18.886-19.08,12.623-50.977,23.231-91.152,29.737a557.82,557.82,0,0,1-66.27,6.554,637.576,637.576,0,0,1-76.418-1.359c-13.424-1.068-27.139-2.6-41.073-4.855a382.5,382.5,0,0,1-42.214-8.885c-7.088-1.893-14.152-4.1-21.144-6.676A172.507,172.507,0,0,1,193,506.765a84.69,84.69,0,0,1-18.789-13.011,37.7,37.7,0,0,1-7.137-9.1,21.847,21.847,0,0,1,0-22.381,37.794,37.794,0,0,1,7.282-9.079,84.7,84.7,0,0,1,18.789-13.011,173.862,173.862,0,0,1,20.658-9.006c7.016-2.573,14.08-4.855,21.168-6.676a388.98,388.98,0,0,1,42.19-8.885c13.934-2.209,27.649-3.762,41.073-4.855a632.383,632.383,0,0,1,76.418-1.359,552.937,552.937,0,0,1,66.271,6.53c40.151,6.506,72.072,17.114,91.152,29.737,9.491,6.312,15.512,13.278,17.745,18.886a18.319,18.319,0,0,1,1.262,3.738,11.988,11.988,0,0,1,.51,2.816C571.567,472.513,571.615,473.145,571.64,473.509Z" transform="translate(67.686 218.57)" fill="#1a326a"/>
              <path id="Path_123" data-name="Path 123" d="M120.107,284.938a7.744,7.744,0,1,1-2.259-5.491A7.744,7.744,0,0,1,120.107,284.938Z" transform="translate(-104.62 126.01)" fill="#09c3ff"/>
              <circle id="Ellipse_1" data-name="Ellipse 1" cx="7.744" cy="7.744" r="7.744" transform="translate(788.398 313.074)" fill="#09c3ff"/>
              <path id="Path_124" data-name="Path 124" d="M278.636,404.724a7.768,7.768,0,1,1-7.744-7.744,7.768,7.768,0,0,1,7.744,7.744Z" transform="translate(340.499 272.022)" fill="#1a326a"/>
              <path id="Path_125" data-name="Path 125" d="M177.118,320.414a3.884,3.884,0,1,1-3.884-3.884A3.884,3.884,0,0,1,177.118,320.414Z" transform="translate(75.338 86.822)" fill="#1a326a"/>
              <path id="Path_126" data-name="Path 126" d="M375.628,359.094a3.884,3.884,0,1,1-3.86-3.884,3.884,3.884,0,0,1,3.86,3.884Z" transform="translate(490.043 212.395)" fill="#1a326a"/>
              <path id="Path_127" data-name="Path 127" d="M249.568,432.924a3.884,3.884,0,1,1-3.86-3.884,3.884,3.884,0,0,1,3.86,3.884Z" transform="translate(178.759 247.43)" fill="#1a326a"/>
              <circle id="Ellipse_2" data-name="Ellipse 2" cx="1.942" cy="1.942" r="1.942" transform="translate(224.224)" fill="#1a326a"/>
            </g>
            <g id="freepik--front-screens--inject-288" transform="translate(5.07 203.352)">
              <path id="Path_128" data-name="Path 128" d="M479.3,382.832c-94.114,24.906-184.829,23.013-283.7,0L184,202.032c102.173,19.881,204.735,17.357,295.256-4.272Z" transform="translate(91.181 -47.595)" fill="#96bde6"/>
              <g id="Group_12" data-name="Group 12" transform="translate(275.181 150.165)" opacity="0.8">
                <path id="Path_129" data-name="Path 129" d="M479.3,382.832c-94.114,24.906-184.829,23.013-283.7,0L184,202.032c102.173,19.881,204.735,17.357,295.256-4.272Z" transform="translate(-184 -197.76)" fill="#fff"/>
              </g>
              <path id="Path_130" data-name="Path 130" d="M446.973,262.65a2.426,2.426,0,0,1-.607.291l-1.772.753c-1.578.631-3.86,1.651-6.894,2.743a260.443,260.443,0,0,1-26.047,8.156,340.5,340.5,0,0,1-89.283,10.2,521.347,521.347,0,0,1-89.477-9.564c-11.336-2.16-20.44-4.151-26.7-5.608-3.132-.7-5.559-1.311-7.282-1.723l-1.869-.486c-.413-.121-.631-.194-.607-.219h.655l1.893.364,7.282,1.481c6.287,1.311,15.439,3.18,26.7,5.195a549.364,549.364,0,0,0,89.332,9.2,351.98,351.98,0,0,0,89.065-9.71c11.142-2.816,20.027-5.632,26.1-7.792,3.059-1,5.365-1.942,6.967-2.427l1.821-.631A1.82,1.82,0,0,1,446.973,262.65Z" transform="translate(108.923 45.035)" fill="#96bde6"/>
              <path id="Path_131" data-name="Path 131" d="M263.968,305.293a61.633,61.633,0,0,1-36.218-1.214V239.751a90.981,90.981,0,0,1,36.218,0Z" transform="translate(153.633 9.747)" fill="#578ccf"/>
              <path id="Path_132" data-name="Path 132" d="M289.924,321.96a2.6,2.6,0,0,1,0-.51v-1.384c0-1.311,0-3.107-.17-5.389,0-4.734-.218-11.506-.388-19.978-.243-16.992-.607-40.952-1.02-68.65l.486.583a97.9,97.9,0,0,0-37.5,0l.51-.607v1.262c.388,38.015.753,72.364,1,96.881l-.364-.437a86.814,86.814,0,0,0,15.8,1.942,59.4,59.4,0,0,0,11.919-1,55.827,55.827,0,0,0,7.282-1.918l1.821-.631a2.592,2.592,0,0,1,.68-.194l-.583.267-1.845.8a51.373,51.373,0,0,1-7.282,2.16,56.975,56.975,0,0,1-12.016,1.189,82.925,82.925,0,0,1-15.973-1.748h-.34v-.485c-.364-24.518-.85-58.842-1.384-96.857v-1.821h.534a97.853,97.853,0,0,1,37.966,0l.486.121v.486c.218,27.819.388,51.827.534,68.965v26.508C290.07,321.888,289.948,321.96,289.924,321.96Z" transform="translate(186.18 -10.731)" fill="#96bde6"/>
              <path id="Path_133" data-name="Path 133" d="M311.022,321.733c-9.71,5.243-22.454,5.947-36.242,5.146V220.6a77.487,77.487,0,0,1,36.242,0Z" transform="translate(220.769 -18.054)" fill="#578ccf"/>
              <path id="Path_134" data-name="Path 134" d="M239.87,288.761s0-1-.121-2.743,0-4.345-.146-7.428c0-6.457-.17-15.415-.267-26.071l.34.51a80.982,80.982,0,0,0-34.883-5.8h0l.583-.631v36.243l-.316-.486a67.7,67.7,0,0,0,13.982,3.981c4.3.777,8.059,1.214,11.191,1.529l7.282.607a22.8,22.8,0,0,1,2.573.291,19.174,19.174,0,0,1-2.573,0,68.4,68.4,0,0,1-7.282-.316c-3.131-.316-6.943-.582-11.264-1.286A64.956,64.956,0,0,1,204.7,283.3l-.316-.146V245.964h.631a80.422,80.422,0,0,1,35.393,6.045l.364.121v.388c0,10.8-.218,19.881-.291,26.435,0,3.034,0,5.462-.146,7.283A14.568,14.568,0,0,1,239.87,288.761Z" transform="translate(120.273 21.036)" fill="#96bde6"/>
              <path id="Path_135" data-name="Path 135" d="M254.35,226.468a36.415,36.415,0,0,1-7.088.437c-4.394,0-10.462,0-17.138-.413s-12.7-1.02-16.992-1.6a35.854,35.854,0,0,1-6.991-1.262,44.5,44.5,0,0,1,7.064.388c4.369.34,10.39.825,16.992,1.214s12.7.631,16.992.777A47.185,47.185,0,0,1,254.35,226.468Z" transform="translate(122.785 -10.688)" fill="#09c3ff"/>
              <path id="Path_136" data-name="Path 136" d="M248.637,230.04a31.224,31.224,0,0,1-6.214,0c-3.835-.194-9.127-.534-14.978-.971s-11.142-.922-14.953-1.335a30.759,30.759,0,0,1-6.142-.922,31.219,31.219,0,0,1,6.214,0c3.86.194,9.127.534,14.978.971s11.118.922,14.929,1.335a31.732,31.732,0,0,1,6.166.923Z" transform="translate(123.085 -6.346)" fill="#09c3ff"/>
              <path id="Path_137" data-name="Path 137" d="M268.943,253.333v-2.258c0-1.432.121-3.641.243-6.263.243-5.486.607-13.206,1.068-22.7l.461.51a518.756,518.756,0,0,1-67.072-3.738l.7-.583h0v1.991l-.121,2.039c0,1.359-.146,2.719-.243,4.054-.146,2.695-.291,5.34-.461,7.938-.316,5.219-.607,10.268-.9,15.1l-.51-.631c19.42,2.428,36.145,3.4,48.016,3.86l13.91.413,3.641.121h1.335a7.047,7.047,0,0,1-1.214,0c-.825,0-2.136,0-3.763.121H250.105c-11.895-.243-28.693-1.117-48.137-3.423h-.558V249.3q.4-7.282.85-15.1c.146-2.6.291-5.243.461-7.938l.218-4.054v-4.03h0l.7-.583a572.908,572.908,0,0,0,67.169,4.1h.485v.486c-.655,9.564-1.189,17.381-1.578,22.916-.194,2.573-.364,4.637-.485,6.142a10.8,10.8,0,0,1-.291,2.088Z" transform="translate(116.033 -19.274)" fill="#09c3ff"/>
              <path id="Path_138" data-name="Path 138" d="M237.508,245.938a28.719,28.719,0,0,1-4.685-6.481,23.233,23.233,0,0,1-3.593-7.137,28.716,28.716,0,0,1,4.685,6.481,23.228,23.228,0,0,1,3.593,7.137Z" transform="translate(155.746 1.739)" fill="#09c3ff"/>
              <path id="Path_139" data-name="Path 139" d="M70.64,141,101.4,327.14s46.972,87.924,171.745,107.732L253.018,268.735S137.615,233,70.64,141Z" transform="translate(-70.64 -128.62)" fill="#96bde6"/>
              <g id="Group_13" data-name="Group 13" transform="translate(0 12.38)" opacity="0.8">
                <path id="Path_140" data-name="Path 140" d="M70.64,141,101.4,327.14s46.972,87.924,171.745,107.732L253.018,268.735S137.615,233,70.64,141Z" transform="translate(-70.64 -141)" fill="#fff"/>
              </g>
              <path id="Path_141" data-name="Path 141" d="M247.595,391.978l-.777-.194-2.428-.655-8.788-2.695c-3.811-1.214-8.545-2.428-13.812-4.612l-8.472-3.229c-3.034-1.141-6.214-2.427-9.443-3.884-6.481-2.961-13.691-6.02-21.022-10.147s-15.148-8.569-23.11-13.643a231.363,231.363,0,0,1-46.365-40.175,137.492,137.492,0,0,1-16.725-23.328h0L82.574,198.385c-1.7-11.361-3.083-20.464-4.03-26.848l-1.02-7.282-.243-1.869a2.647,2.647,0,0,1,0-.655,2.428,2.428,0,0,1,.146.631l.364,1.869,1.238,7.282c1.044,6.36,2.427,15.463,4.394,26.7,3.641,22.867,8.739,54.716,14.565,90.958V289a139,139,0,0,0,16.556,23.061,233.038,233.038,0,0,0,46.122,40.029c7.914,5.1,15.463,9.88,22.94,13.691s14.444,7.282,20.9,10.244c3.2,1.578,6.384,2.816,9.37,3.957l8.4,3.3c5.219,2.209,9.928,3.52,13.691,4.855l8.715,2.913,2.258.777A3.3,3.3,0,0,1,247.595,391.978Z" transform="translate(-61.188 -99.028)" fill="#578ccf"/>
              <path id="Path_142" data-name="Path 142" d="M230.23,313.732s0,.146-.413.388l-1.335,1.068-5.171,4.03-19.566,15.026-.291.243-.243-.34c-6.6-9.1-14.735-20.367-23.959-33.16l.728.121L161.6,314.217l-.607.437-.267-.728c-7.283-19.42-15.22-41.267-23.692-64.256l-3.4-9.249h1.141l-14.953,29.713-.655,1.287-.461-1.359c-13.036-37.529-24.081-69.426-31.266-90.133H88.1c-1.966,8.3-3.52,14.832-4.588,19.42-.534,2.185-.971,3.884-1.262,5.1l-.34,1.311a1.5,1.5,0,0,1-.17.437v-.461a9.728,9.728,0,0,1,.243-1.311l1.092-5.146c1-4.588,2.427-11.142,4.272-19.42l.267-1.165.413,1.141c7.282,20.658,18.522,52.482,31.752,89.939h-1.117l14.929-29.713.655-1.311.51,1.359,3.4,9.249c8.423,23.013,16.434,44.836,23.571,64.3l-.874-.267L179.3,300.38l.413-.291.316.413,23.717,33.208h-.558l19.833-14.735,5.292-3.884,1.384-.971Z" transform="translate(-54.795 -74.818)" fill="#09c3ff"/>
              <path id="Path_143" data-name="Path 143" d="M177.427,213.966a11.356,11.356,0,0,1-2.622-.583c-1.651-.461-4.054-1.189-6.967-2.16a228.177,228.177,0,0,1-22.309-8.788,238.068,238.068,0,0,1-21.435-11c-2.646-1.554-4.855-2.864-6.214-3.811a11,11,0,0,1-2.16-1.578,11.264,11.264,0,0,1,2.427,1.165l6.409,3.447c5.413,2.889,12.963,6.773,21.508,10.632s16.434,6.943,22.187,9.1c2.695.971,4.855,1.821,6.821,2.428A9.712,9.712,0,0,1,177.427,213.966Z" transform="translate(-6.289 -64.311)" fill="#96bde6"/>
              <path id="Path_144" data-name="Path 144" d="M166.177,208.952a25.124,25.124,0,0,1-6.02-1.068A139.348,139.348,0,0,1,146,203.66a141.213,141.213,0,0,1-13.618-5.7,26.092,26.092,0,0,1-5.316-2.986,33.2,33.2,0,0,1,5.7,2.185c3.471,1.432,8.278,3.374,13.667,5.316s10.341,3.471,13.958,4.564A33.113,33.113,0,0,1,166.177,208.952Z" transform="translate(9.913 -51.578)" fill="#96bde6"/>
              <path id="Path_145" data-name="Path 145" d="M125.4,230.732c0,1.554-.947,2.792-2.112,2.792s-2.088-1.238-2.088-2.792.947-2.792,2.088-2.792S125.4,229.2,125.4,230.732Z" transform="translate(1.534 -4.514)" fill="#09c3ff"/>
              <ellipse id="Ellipse_3" data-name="Ellipse 3" cx="2.088" cy="2.792" rx="2.088" ry="2.792" transform="translate(77.097 164.584)" fill="#09c3ff"/>
              <path id="Path_146" data-name="Path 146" d="M87.585,181.2c0,1.529-.947,2.792-2.088,2.792s-2.088-1.262-2.088-2.792.922-2.792,2.088-2.792S87.585,179.672,87.585,181.2Z" transform="translate(-52.411 -75.217)" fill="#09c3ff"/>
              <path id="Path_147" data-name="Path 147" d="M514.49,154.64l-15.415,189.1S454,424.6,330,427.684L345.318,237.3S453.511,232.9,514.49,154.64Z" transform="translate(299.595 -109.149)" fill="#96bde6"/>
              <path id="Path_148" data-name="Path 148" d="M443,171.536c-4.03-13.084-13.837-31.752-37.141-35.636L378.38,390.253s51.73-10.317,53.114-38.67c.121-2.428,10.463-128.876,13.06-160.215A51.249,51.249,0,0,0,443,171.536Z" transform="translate(368.657 -135.9)" fill="#96bde6"/>
              <g id="Group_14" data-name="Group 14" transform="translate(629.595 45.491)" opacity="0.8">
                <path id="Path_149" data-name="Path 149" d="M514.49,154.64l-15.415,189.1S454,424.6,330,427.684L345.318,237.3S453.511,232.9,514.49,154.64Z" transform="translate(-330 -154.64)" fill="#fff"/>
              </g>
              <path id="Path_150" data-name="Path 150" d="M491.9,174.5a112.005,112.005,0,0,0-19.735,61.149c-.121,6.287.243,12.769-2.16,18.57s-8.618,10.657-14.565,9.006S446.286,254,440.751,250.5a16.386,16.386,0,0,0-16.628.364A27.989,27.989,0,0,0,413.2,264.147c-4.491,10.365-4.855,22.066-8.108,32.868s-11.458,21.7-22.77,22.187c-4.127.17-8.2-1.068-12.332-.947-8.715.267-16.288,6.748-20.342,14.565s-5.292,16.58-6.457,25.222c0,0,66.076,6.312,140.236-81.273Z" transform="translate(318.423 -80.799)" fill="#578ccf"/>
              <path id="Path_151" data-name="Path 151" d="M364.221,224.248c0,2.427-1.165,4.248-2.6,4.248s-2.573-1.893-2.573-4.248S360.191,220,361.623,220,364.221,221.918,364.221,224.248Z" transform="translate(341.063 -15.848)" fill="#09c3ff"/>
              <path id="Path_152" data-name="Path 152" d="M377.041,191.868c0,2.427-1.165,4.248-2.6,4.248s-2.573-1.918-2.573-4.248,1.141-4.248,2.573-4.248S377.041,189.513,377.041,191.868Z" transform="translate(359.364 -62.07)" fill="#09c3ff"/>
              <path id="Path_153" data-name="Path 153" d="M488.833,178.26a5.826,5.826,0,0,1-.413,1.068l-1.408,3.083c-1.311,2.743-3.131,6.627-5.438,11.531l-19.711,41.049-.267.558-.534-.34-46.729-29.567.922-.291c-.607,1.505-1.287,3.131-1.942,4.855l-30.174,73.82-.218.51-.461-.267c-11.652-6.554-21.168-11.822-27.771-15.415-3.326-1.8-5.9-3.18-7.671-4.078L345,263.8l-.7-.316a56.362,56.362,0,0,1,10.632,4.855c6.7,3.447,16.264,8.593,27.989,15.05l-.68.243,29.907-74.014c.655-1.626,1.335-3.253,1.942-4.855l.291-.7.631.413,46.656,29.713-.8.219c8.278-16.823,15.22-30.878,20.124-40.831l5.8-11.336,1.554-2.986a6.729,6.729,0,0,1,.485-1Z" transform="translate(320.008 -75.431)" fill="#09c3ff"/>
            </g>
          </g>
          <path id="Path_154" data-name="Path 154" d="M275.594,403.208a6.247,6.247,0,1,1-6.228-6.228A6.247,6.247,0,0,1,275.594,403.208Z" transform="translate(663.595 -26.881)" fill="#c5e6ec"/>
          <path id="Path_157" data-name="Path 157" d="M279.845,405.326a8.373,8.373,0,1,1-8.346-8.346,8.372,8.372,0,0,1,8.346,8.346Z" transform="translate(60.987 671.54)" fill="#1a326a"/>
        </g>
      </g>
      <path id="Path_301" data-name="Path 301" d="M439.157,487.711a4.1,4.1,0,0,1-4.1-4.1,4.937,4.937,0,0,0-4.931-4.931,4.1,4.1,0,0,1,0-8.194,4.937,4.937,0,0,0,4.931-4.931,4.1,4.1,0,0,1,8.194,0,4.937,4.937,0,0,0,4.931,4.931,4.1,4.1,0,0,1,0,8.194,4.937,4.937,0,0,0-4.931,4.931A4.1,4.1,0,0,1,439.157,487.711Z" transform="translate(458.289 -290.3)" fill="#ffad09"/>
      <path id="Path_302" data-name="Path 302" d="M439.157,487.711a4.1,4.1,0,0,1-4.1-4.1,4.937,4.937,0,0,0-4.931-4.931,4.1,4.1,0,0,1,0-8.194,4.937,4.937,0,0,0,4.931-4.931,4.1,4.1,0,0,1,8.194,0,4.937,4.937,0,0,0,4.931,4.931,4.1,4.1,0,0,1,0,8.194,4.937,4.937,0,0,0-4.931,4.931A4.1,4.1,0,0,1,439.157,487.711Z" transform="translate(283.998 165.106)" fill="#1a326a"/>
    </g>
  </g>
</svg>
