<svg xmlns="http://www.w3.org/2000/svg" width="117.907" height="101.609" viewBox="0 0 117.907 101.609">
  <g id="web-development_1_" data-name="web-development (1)" transform="translate(-25.694 24.571)">
    <path id="Path_160" data-name="Path 160" d="M306.979,42.081a1.143,1.143,0,0,1-.808-.335l-2.518-2.518a1.142,1.142,0,0,1,0-1.616l2.518-2.518a1.143,1.143,0,0,1,1.616,0l2.518,2.518a1.143,1.143,0,0,1,0,1.616l-2.518,2.518A1.143,1.143,0,0,1,306.979,42.081Zm-.9-3.66.9.9.9-.9-.9-.9Z" transform="translate(-277.409 -29.771)" fill="#ffad09"/>
    <path id="Path_161" data-name="Path 161" d="M369.692,411.765a1.143,1.143,0,0,1-.808-.335l-2.518-2.518a1.142,1.142,0,0,1,0-1.616l2.518-2.518a1.143,1.143,0,0,1,1.616,0l2.518,2.518a1.142,1.142,0,0,1,0,1.616l-2.518,2.518a1.144,1.144,0,0,1-.808.334Zm-.9-3.66.9.9.9-.9-.9-.9Z" transform="translate(-255.514 -424.477)" fill="#09c3ff"/>
    <path id="Path_291" data-name="Path 291" d="M3.66,7.32a1.143,1.143,0,0,1-.808-.335L.335,4.468a1.142,1.142,0,0,1,0-1.616L2.853.335a1.143,1.143,0,0,1,1.616,0L6.986,2.852a1.142,1.142,0,0,1,0,1.616L4.468,6.986a1.144,1.144,0,0,1-.808.334Zm-.9-3.66.9.9.9-.9-.9-.9Z" transform="translate(136.607 37.162) rotate(45)" fill="#1a326a"/>
    <path id="Path_162" data-name="Path 162" d="M94.326,452.525a1.143,1.143,0,0,1-1.143-1.143,1.377,1.377,0,0,0-1.375-1.375,1.143,1.143,0,0,1,0-2.285,1.377,1.377,0,0,0,1.375-1.375,1.143,1.143,0,0,1,2.285,0,1.377,1.377,0,0,0,1.375,1.375,1.143,1.143,0,1,1,0,2.285,1.377,1.377,0,0,0-1.375,1.375A1.143,1.143,0,0,1,94.326,452.525Z" transform="translate(45.615 -444.498)" fill="#09c3ff"/>
    <path id="Path_290" data-name="Path 290" d="M3.661,7.321A1.143,1.143,0,0,1,2.518,6.178,1.377,1.377,0,0,0,1.143,4.8a1.143,1.143,0,0,1,0-2.285A1.377,1.377,0,0,0,2.518,1.143a1.143,1.143,0,0,1,2.285,0A1.377,1.377,0,0,0,6.178,2.518a1.143,1.143,0,1,1,0,2.285A1.377,1.377,0,0,0,4.8,6.178,1.143,1.143,0,0,1,3.661,7.321Z" transform="translate(49.471 -19.394) rotate(-45)" fill="#ffad09"/>
    <path id="Path_163" data-name="Path 163" d="M137.658,406.127a1.143,1.143,0,0,1-1.143-1.143,1.377,1.377,0,0,0-1.375-1.375,1.143,1.143,0,0,1,0-2.285,1.377,1.377,0,0,0,1.375-1.375,1.143,1.143,0,0,1,2.285,0,1.377,1.377,0,0,0,1.375,1.375,1.143,1.143,0,0,1,0,2.285,1.377,1.377,0,0,0-1.375,1.375A1.143,1.143,0,0,1,137.658,406.127Z" transform="translate(-108.304 -363.452)" fill="#1a326a"/>
    <path id="Path_166" data-name="Path 166" d="M221.349,393.53h-25.92a1.142,1.142,0,0,1-1.108-1.422l4.079-16.166a1.142,1.142,0,1,1,2.215.559l-3.72,14.744h22.987l-3.754-14.876a1.142,1.142,0,1,1,2.215-.559l4.112,16.3a1.142,1.142,0,0,1-1.108,1.422Z" transform="translate(-123.737 -316.492)" fill="#1a326a"/>
    <path id="Path_167" data-name="Path 167" d="M147.406,97.745v58.1a3.429,3.429,0,0,1-3.428,3.428H59.428A3.429,3.429,0,0,1,56,155.844v-58.1a3.429,3.429,0,0,1,3.428-3.428h84.55A3.429,3.429,0,0,1,147.406,97.745Z" transform="translate(-17.051 -99.99)" fill="#fff"/>
    <path id="Path_169" data-name="Path 169" d="M320.7,167.179l-1.643-5.77a1.145,1.145,0,0,0-1.1-.832h-5.576a1.145,1.145,0,0,0-1.1.832l-1.643,5.77a22.963,22.963,0,0,0-6.446,2.669l-5.242-2.918a1.142,1.142,0,0,0-1.364.19l-3.942,3.944a1.145,1.145,0,0,0-.192,1.364l2.92,5.242a22.983,22.983,0,0,0-2.671,6.444l-5.77,1.645a1.141,1.141,0,0,0-.829,1.1v5.576a1.145,1.145,0,0,0,.829,1.1l5.77,1.643a22.885,22.885,0,0,0,1.632,4.527H310.98A10.894,10.894,0,1,1,324.925,184.8V168.664A22.992,22.992,0,0,0,320.7,167.179Z" transform="translate(-194.57 -151.108)" fill="#ffa052"/>
    <path id="Path_170" data-name="Path 170" d="M320.7,167.179l-1.643-5.77a1.145,1.145,0,0,0-1.1-.832h-5.576a1.145,1.145,0,0,0-1.1.832l-1.643,5.77a22.963,22.963,0,0,0-6.446,2.669l-5.242-2.918a1.142,1.142,0,0,0-1.364.19l-3.942,3.944a1.145,1.145,0,0,0-.192,1.364l2.92,5.242a22.983,22.983,0,0,0-2.671,6.444l-5.77,1.645a1.141,1.141,0,0,0-.829,1.1v5.576a1.145,1.145,0,0,0,.829,1.1l5.77,1.643a22.885,22.885,0,0,0,1.632,4.527H310.98A10.894,10.894,0,1,1,324.925,184.8V168.664A22.992,22.992,0,0,0,320.7,167.179Z" transform="translate(-194.57 -151.108)" fill="#ffad09"/>
    <path id="Path_171" data-name="Path 171" d="M147.406,105.328v-7.58a3.428,3.428,0,0,0-3.428-3.428H59.428A3.428,3.428,0,0,0,56,97.748v7.58Z" transform="translate(-17.051 -99.992)" fill="#ddf4fc"/>
    <path id="Path_172" data-name="Path 172" d="M143.548,139.776H52.143a1.143,1.143,0,1,1,0-2.285h91.406a1.143,1.143,0,0,1,0,2.285Z" transform="translate(-13.193 -133.298)" fill="#1a326a"/>
    <g id="Group_21" data-name="Group 21" transform="translate(37.807 -6.815)">
      <path id="Path_174" data-name="Path 174" d="M168.078,325.463H84.1a1.143,1.143,0,1,1,0-2.285h83.976a1.143,1.143,0,0,1,0,2.285Z" transform="translate(-75.656 -269.738)" fill="#1a326a"/>
      <path id="Path_175" data-name="Path 175" d="M210.913,448.553h-34.7a1.143,1.143,0,0,1,0-2.285h34.7a1.143,1.143,0,0,1,0,2.285Z" transform="translate(-146.715 -364.7)" fill="#1a326a"/>
      <path id="Path_176" data-name="Path 176" d="M90.225,115.651a1.143,1.143,0,0,1-1.143-1.143v-.033a1.143,1.143,0,0,1,2.285,0v.033A1.143,1.143,0,0,1,90.225,115.651Z" transform="translate(-80.38 -107.846)" fill="#1a326a"/>
      <path id="Path_177" data-name="Path 177" d="M109.55,115.651a1.143,1.143,0,0,1-1.143-1.143v-.033a1.143,1.143,0,0,1,2.285,0v.033A1.143,1.143,0,0,1,109.55,115.651Z" transform="translate(-95.289 -107.846)" fill="#1a326a"/>
      <path id="Path_178" data-name="Path 178" d="M128.874,115.651a1.143,1.143,0,0,1-1.143-1.143v-.033a1.143,1.143,0,0,1,2.285,0v.033A1.143,1.143,0,0,1,128.874,115.651Z" transform="translate(-110.197 -107.846)" fill="#1a326a"/>
      <path id="Path_179" data-name="Path 179" d="M140.12,156.56H55.57a4.575,4.575,0,0,1-4.57-4.57V93.89a4.575,4.575,0,0,1,4.57-4.57h84.55a4.575,4.575,0,0,1,4.57,4.57v7.58a1.143,1.143,0,1,1-2.285,0V93.89a2.288,2.288,0,0,0-2.285-2.285H55.57a2.288,2.288,0,0,0-2.285,2.285v58.1a2.288,2.288,0,0,0,2.285,2.285h84.55a2.288,2.288,0,0,0,2.285-2.285V107.764a1.143,1.143,0,1,1,2.285,0V151.99A4.575,4.575,0,0,1,140.12,156.56Z" transform="translate(-51 -89.32)" fill="#1a326a"/>
    </g>
    <path id="Path_180" data-name="Path 180" d="M127.206,266.544H89.1a1.144,1.144,0,0,1,0-2.289h38.1a1.144,1.144,0,0,1,0,2.289Z" transform="translate(-41.707 -231.095)" fill="#dde7f2"/>
    <path id="Path_181" data-name="Path 181" d="M113.5,224.552H89.1a1.144,1.144,0,1,1,0-2.289H113.5a1.144,1.144,0,1,1,0,2.289Z" transform="translate(-41.707 -198.698)" fill="#09c3ff"/>
    <path id="Path_182" data-name="Path 182" d="M127.206,286.41H89.1a1.144,1.144,0,1,1,0-2.289h38.1a1.144,1.144,0,1,1,0,2.289Z" transform="translate(-41.707 -246.421)" fill="#dde7f2"/>
    <path id="Path_183" data-name="Path 183" d="M92.975,176.178a1.139,1.139,0,0,1-.808-.335l-2.75-2.75a1.142,1.142,0,0,1,0-1.616l2.75-2.75a1.142,1.142,0,1,1,1.616,1.616l-1.942,1.942,1.942,1.942a1.142,1.142,0,0,1-.808,1.95Z" transform="translate(-42.573 -157.138)" fill="#09c3ff"/>
    <path id="Path_184" data-name="Path 184" d="M149.022,176.177a1.142,1.142,0,0,1-.808-1.95l1.942-1.942-1.942-1.942a1.142,1.142,0,0,1,1.616-1.616l2.75,2.75a1.142,1.142,0,0,1,0,1.616l-2.75,2.75A1.138,1.138,0,0,1,149.022,176.177Z" transform="translate(-87.934 -157.138)" fill="#09c3ff"/>
    <path id="Path_185" data-name="Path 185" d="M118.843,176.177a1.143,1.143,0,0,1-.994-1.7l3.106-5.5a1.143,1.143,0,1,1,1.99,1.124l-3.106,5.5A1.142,1.142,0,0,1,118.843,176.177Z" transform="translate(-64.652 -157.137)" fill="#09c3ff"/>
    <circle id="Ellipse_5" data-name="Ellipse 5" cx="1.277" cy="1.277" r="1.277" transform="translate(95.427 11.254)" fill="#09c3ff"/>
    <circle id="Ellipse_6" data-name="Ellipse 6" cx="1.277" cy="1.277" r="1.277" transform="translate(91.562 11.254)" fill="#09c3ff"/>
    <circle id="Ellipse_7" data-name="Ellipse 7" cx="1.277" cy="1.277" r="1.277" transform="translate(87.698 11.254)" fill="#09c3ff"/>
  </g>
</svg>
